<?xml version="1.0" encoding="utf-8"?>
<!-- Generator: Adobe Illustrator 25.2.3, SVG Export Plug-In . SVG Version: 6.00 Build 0)  -->
<svg version="1.1" id="レイヤー_1" xmlns="http://www.w3.org/2000/svg" xmlns:xlink="http://www.w3.org/1999/xlink" x="0px"
	 y="0px" viewBox="0 0 687.71 220.98" style="enable-background:new 0 0 687.71 220.98;" xml:space="preserve">
<style type="text/css">
	.st0{fill:#FFFFFF;}
</style>
<g>
	<g>
		<path class="st0" d="M40.34,123.29H32.7c-1.08-5.19-3.39-8.06-6.94-8.62c-3.86-0.42-6.79,1.26-8.79,5.05
			c-1.39,2.8-2.08,6.31-2.08,10.51c0,4.77,0.61,8.34,1.85,10.72c1.85,3.65,4.7,5.4,8.56,5.26c3.7-0.42,6.09-2.87,7.17-7.36h8.1
			c-0.92,5.75-3.63,9.81-8.1,12.2c-3.39,1.96-7.4,2.38-12.03,1.26c-3.86-0.98-6.94-3.22-9.25-6.73c-1.85-2.66-3.09-6.38-3.7-11.14
			c-0.62-5.61,0.08-10.72,2.08-15.35c2.16-4.91,5.32-8.06,9.48-9.46c6.94-2.1,12.64-0.63,17.12,4.42
			C38.18,116.28,39.56,119.37,40.34,123.29z"/>
		<path class="st0" d="M44.5,152.73l12.03-43.32h8.33l11.8,43.32h-7.63l-2.08-9.25H54.45l-2.08,9.25H44.5z M56.07,136.96h9.25
			l-4.63-18.08L56.07,136.96z"/>
		<path class="st0" d="M81.51,152.94V109.2h25.91v6.52h-18.5v10.93h16.42v6.73H88.91v19.56H81.51z"/>
		<path class="st0" d="M112.74,152.73v-43.32h25.91v6.52h-18.5v10.72h16.42v6.73h-16.42v12.83h18.97v6.52H112.74z"/>
		<path class="st0" d="M162.47,152.73l12.03-43.32h8.33l11.8,43.32h-7.63l-2.08-9.25h-12.49l-2.08,9.25H162.47z M174.03,136.96h9.25
			l-4.63-18.08L174.03,136.96z"/>
		<path class="st0" d="M199.48,152.73v-43.32h8.33l15.04,29.44v-29.44h7.4v43.32h-7.63l-15.73-30.07v30.07H199.48z"/>
		<path class="st0" d="M236.95,109.2h11.8c4.47,0,8.4,1.54,11.8,4.63c3.7,3.36,5.55,9.11,5.55,17.24c0,8.13-1.85,13.88-5.55,17.24
			c-3.39,3.08-7.4,4.63-12.03,4.63h-11.57V109.2z M243.89,146h4.63c2.46,0,4.78-0.98,6.94-2.94c2.16-1.96,3.24-5.96,3.24-11.99
			c0-6.03-1.08-10.02-3.24-11.99c-2.16-1.96-4.48-2.94-6.94-2.94h-4.63V146z"/>
		<path class="st0" d="M291.31,152.94V109.2h7.17v17.87l13.88-17.87h8.79l-13.42,17.03l14.57,26.71h-8.33l-11.33-20.82l-4.16,5.26
			v15.56H291.31z"/>
		<path class="st0" d="M326.47,152.73v-43.32h8.33l15.04,29.44v-29.44h7.4v43.32h-7.63l-15.73-30.07v30.07H326.47z"/>
		<path class="st0" d="M364.71,152.94V109.2h7.63v43.74H364.71z"/>
		<path class="st0" d="M411.36,123.29h-7.63c-1.08-5.19-3.39-8.06-6.94-8.62c-3.86-0.42-6.79,1.26-8.79,5.05
			c-1.39,2.8-2.08,6.31-2.08,10.51c0,4.77,0.61,8.34,1.85,10.72c1.85,3.65,4.7,5.4,8.56,5.26c3.7-0.42,6.09-2.87,7.17-7.36h8.1
			c-0.92,5.75-3.63,9.81-8.1,12.2c-3.39,1.96-7.4,2.38-12.03,1.26c-3.86-0.98-6.94-3.22-9.25-6.73c-1.85-2.66-3.09-6.38-3.7-11.14
			c-0.62-5.61,0.08-10.72,2.08-15.35c2.16-4.91,5.32-8.06,9.48-9.46c6.94-2.1,12.64-0.63,17.12,4.42
			C409.2,116.28,410.58,119.37,411.36,123.29z"/>
		<path class="st0" d="M417.37,152.94V109.2h7.17v17.87l13.88-17.87h8.79l-13.41,17.03l14.57,26.71h-8.33l-11.33-20.82l-4.16,5.26
			v15.56H417.37z"/>
		<path class="st0" d="M447.5,128.55h19.11v5.89H447.5V128.55z"/>
		<path class="st0" d="M473.27,152.94V109.2h7.17v17.87l13.88-17.87h8.79l-13.42,17.03l14.57,26.71h-8.33l-11.33-20.82l-4.16,5.26
			v15.56H473.27z"/>
		<path class="st0" d="M508.43,152.73v-43.32h8.33l15.04,29.44v-29.44h7.4v43.32h-7.63l-15.73-30.07v30.07H508.43z"/>
		<path class="st0" d="M544.05,152.73l12.03-43.32h8.33l11.8,43.32h-7.63l-2.08-9.25H554l-2.08,9.25H544.05z M555.62,136.96h9.25
			l-4.63-18.08L555.62,136.96z"/>
		<path class="st0" d="M612.15,123.29h-7.63c-1.08-5.19-3.39-8.06-6.94-8.62c-3.86-0.42-6.79,1.26-8.79,5.05
			c-1.39,2.8-2.08,6.31-2.08,10.51c0,4.77,0.61,8.34,1.85,10.72c1.85,3.65,4.7,5.4,8.56,5.26c3.7-0.42,6.09-2.87,7.17-7.36h8.1
			c-0.93,5.75-3.63,9.81-8.1,12.2c-3.39,1.96-7.4,2.38-12.03,1.26c-3.86-0.98-6.94-3.22-9.25-6.73c-1.85-2.66-3.09-6.38-3.7-11.14
			c-0.62-5.61,0.08-10.72,2.08-15.35c2.16-4.91,5.32-8.06,9.48-9.46c6.94-2.1,12.64-0.63,17.12,4.42
			C609.99,116.28,611.38,119.37,612.15,123.29z"/>
		<path class="st0" d="M618.17,152.94V109.2h7.17v17.87l13.88-17.87H648l-13.42,17.03l14.57,26.71h-8.33l-11.33-20.82l-4.16,5.26
			v15.56H618.17z"/>
		<path class="st0" d="M651.41,138.43h7.4c0.31,2.1,0.77,3.72,1.39,4.84c0.61,1.12,1.69,1.96,3.24,2.52c2,0.7,4.01,0.77,6.02,0.21
			c2.46-1.12,3.7-2.73,3.7-4.84c0-2.52-1.24-4.27-3.7-5.26l-9.72-3.79c-1.39-0.56-2.77-1.47-4.16-2.73
			c-2.01-1.82-3.01-4.35-3.01-7.57c0-3.08,0.93-5.75,2.77-7.99c2.78-3.08,6.25-4.69,10.41-4.84c4.01-0.14,7.4,1.19,10.18,4
			c2.47,2.38,3.78,5.61,3.93,9.67h-6.94c-0.62-3.79-2.39-6.1-5.32-6.94c-1.85-0.56-3.55-0.35-5.09,0.63
			c-1.55,0.98-2.31,2.59-2.31,4.84c0,1.12,0.46,2.1,1.39,2.94c0.93,0.84,2.16,1.54,3.7,2.1l7.86,3.15c1.85,0.84,3.47,1.89,4.86,3.15
			c2,1.82,3.01,4.28,3.01,7.36c0,2.52-0.46,4.63-1.39,6.31c-1.08,1.96-2.47,3.44-4.16,4.42c-4.32,2.52-9.02,3.08-14.11,1.68
			C655.34,150.77,652.02,146.14,651.41,138.43z"/>
	</g>
	<g>
		<path class="st0" d="M112.05,169.6h7.4v17.66h14.8V169.6h7.63v43.74h-7.63v-19.14h-14.8v19.14h-7.4V169.6z"/>
		<path class="st0" d="M147.97,213.13L160,169.81h8.33l11.8,43.32h-7.63l-2.08-9.25h-12.49l-2.08,9.25H147.97z M159.53,197.36h9.25
			l-4.63-18.08L159.53,197.36z"/>
		<path class="st0" d="M181.21,169.81h7.63l8.79,30.91l8.33-30.91h7.63l-12.03,43.32h-7.86L181.21,169.81z"/>
		<path class="st0" d="M217.76,213.13v-43.32h25.91v6.52h-18.5v10.72h16.42v6.73h-16.42v12.83h18.97v6.52H217.76z"/>
		<path class="st0" d="M267.49,213.13l12.03-43.32h8.33l11.8,43.32h-7.63l-2.08-9.25h-12.49l-2.08,9.25H267.49z M279.05,197.36h9.25
			l-4.63-18.08L279.05,197.36z"/>
		<path class="st0" d="M323.7,213.13v-43.32h8.33l15.04,29.44v-29.44h7.4v43.32h-7.63l-15.73-30.07v30.07H323.7z"/>
		<path class="st0" d="M361.94,213.34V169.6h7.63v43.74H361.94z"/>
		<path class="st0" d="M408.59,183.69h-7.63c-1.08-5.18-3.39-8.06-6.94-8.62c-3.86-0.42-6.79,1.26-8.79,5.05
			c-1.39,2.81-2.08,6.31-2.08,10.51c0,4.77,0.61,8.34,1.85,10.72c1.85,3.65,4.7,5.4,8.56,5.26c3.7-0.42,6.09-2.87,7.17-7.36h8.1
			c-0.93,5.75-3.63,9.81-8.1,12.2c-3.39,1.96-7.4,2.38-12.03,1.26c-3.86-0.98-6.94-3.22-9.25-6.73c-1.85-2.66-3.09-6.38-3.7-11.14
			c-0.62-5.6,0.08-10.72,2.08-15.35c2.16-4.9,5.32-8.06,9.48-9.46c6.94-2.1,12.64-0.63,17.12,4.42
			C406.43,176.69,407.81,179.77,408.59,183.69z"/>
		<path class="st0" d="M414.6,213.13v-43.32h25.91v6.52H422v10.72h16.42v6.73H422v12.83h18.97v6.52H414.6z"/>
		<path class="st0" d="M466.18,169.6h11.8c4.47,0,8.4,1.55,11.8,4.63c3.7,3.36,5.55,9.12,5.55,17.24c0,8.13-1.85,13.88-5.55,17.24
			c-3.39,3.08-7.4,4.63-12.03,4.63h-11.57V169.6z M473.12,206.4h4.63c2.46,0,4.78-0.98,6.94-2.94c2.16-1.96,3.24-5.96,3.24-11.99
			c0-6.02-1.08-10.02-3.24-11.99c-2.16-1.96-4.48-2.94-6.94-2.94h-4.63V206.4z"/>
		<path class="st0" d="M497.66,213.13l12.03-43.32h8.33l11.8,43.32h-7.63l-2.08-9.25h-12.49l-2.08,9.25H497.66z M509.22,197.36h9.25
			l-4.63-18.08L509.22,197.36z"/>
		<path class="st0" d="M528.46,169.81h8.56l7.4,16.4l6.94-16.4h8.56l-11.57,25.86v17.45h-8.33v-17.45L528.46,169.81z"/>
		<path class="st0" d="M571.15,214.6c-1.7,0-3.09-0.56-4.16-1.68c-0.77-0.84-1.16-1.82-1.16-2.94c0-1.4,0.54-2.59,1.62-3.57
			c0.93-0.84,2.08-1.26,3.47-1.26c1.54,0,2.77,0.42,3.7,1.26c1.08,0.98,1.62,2.18,1.62,3.57c0,1.26-0.39,2.31-1.16,3.15
			C574.16,214.11,572.85,214.6,571.15,214.6z M566.29,181.59V169.6h9.94v11.99l-2.08,20.61h-6.02L566.29,181.59z"/>
	</g>
	<g>
		<path class="st0" d="M7.27,5.99h15.29v36.49h30.58V5.99h15.77v90.35H53.15V56.82H22.56v39.53H7.27V5.99z"/>
		<path class="st0" d="M81.08,96.35l25-90.36h17.2l24.59,90.33H132.1l-4.52-19.95h-25.8l-4.45,19.99H81.08z M105.13,62.89h19.11
			l-9.56-37.36L105.13,62.89z"/>
		<path class="st0" d="M159.21,96.35V5.99h14.81v76.02h39.66v14.33H159.21z"/>
		<path class="st0" d="M221.15,5.99h15.29v54.3c0,12.45,3.98,19.55,11.95,21.28c6.05,0.58,10.35-1.01,12.9-4.78
			c2.23-3.18,3.35-8.69,3.35-16.51V5.99h15.29v54.73c0,13.62-3.03,23.17-9.08,28.67c-5.1,4.63-11.31,6.95-18.64,6.95
			c-8.6,0-15.45-2.32-20.55-6.95c-7.01-6.37-10.51-15.92-10.51-28.67V5.99z"/>
		<path class="st0" d="M337.79,66.36h15.29c0.64,4.31,1.59,7.62,2.87,9.91c1.27,2.3,3.5,4.03,6.69,5.17
			c4.14,1.44,8.28,1.58,12.42,0.43c5.09-2.3,7.65-5.6,7.65-9.91c0-5.17-2.55-8.76-7.65-10.78l-20.07-7.76
			c-2.87-1.14-5.73-3.02-8.6-5.6c-4.14-3.73-6.21-8.9-6.21-15.52c0-6.32,1.91-11.78,5.73-16.38c5.73-6.32,12.9-9.62,21.5-9.91
			c8.28-0.28,15.29,2.44,21.03,8.19c5.09,4.89,7.8,11.5,8.12,19.83h-14.34c-1.28-7.76-4.94-12.5-10.99-14.22
			c-3.82-1.14-7.33-0.71-10.51,1.29c-3.19,2.01-4.78,5.32-4.78,9.91c0,2.3,0.95,4.31,2.87,6.03c1.91,1.72,4.46,3.17,7.65,4.31
			l16.25,6.47c3.82,1.72,7.17,3.88,10.03,6.47c4.14,3.74,6.21,8.77,6.21,15.09c0,5.17-0.96,9.48-2.87,12.93
			c-2.23,4.03-5.1,7.04-8.6,9.05c-8.92,5.17-18.64,6.32-29.15,3.45C345.91,91.65,339.06,82.17,337.79,66.36z"/>
		<path class="st0" d="M403.04,20.33V5.99h60.68v14.33h-22.46v76.02h-15.29V20.33H403.04z"/>
		<path class="st0" d="M596.92,57.73c3.61-1.23,6.75-3.05,9.37-5.43c4.74-4.31,7.15-10.94,7.15-19.71c0-8.48-2.57-15.11-7.63-19.72
			c-5.02-4.56-11.77-6.88-20.06-6.88h-34.37v90.35h15.22V59.18h15.78l19.24,37.17h15.29L596.92,57.73z M566.6,19.22h16.28
			c4.71,0,8.57,1.34,11.48,3.98c1.92,1.75,2.89,4.91,2.89,9.39c0,4.49-0.97,7.65-2.89,9.39c-2.9,2.64-6.77,3.98-11.48,3.98H566.6
			V19.22z"/>
		<path class="st0" d="M626.54,96.35V5.99h53.52v13.47h-38.23v22.16h33.93v13.9h-33.93v27.37h39.18v13.47H626.54z"/>
		<path class="st0" d="M525.75,14.34L525.75,14.34c-6.27-5.54-13.8-8.35-22.36-8.35c-8.57,0-16.09,2.81-22.36,8.35
			c-8.2,7.25-12.36,19.64-12.36,36.83c0,17.19,4.16,29.58,12.36,36.83c6.26,5.54,13.78,8.35,22.36,8.35
			c8.57,0,16.09-2.81,22.36-8.35c8.2-7.25,12.36-19.64,12.36-36.83C538.11,33.99,533.95,21.6,525.75,14.34z M522.19,51.17
			c0,13.66-2.59,22.87-7.71,27.39c-3.29,2.91-6.91,4.32-11.09,4.32c-4.18,0-7.81-1.41-11.09-4.33c-5.11-4.51-7.7-13.73-7.7-27.39
			c0-13.65,2.59-22.87,7.7-27.39c3.29-2.91,6.92-4.33,11.09-4.33c4.16,0,7.79,1.41,11.09,4.32
			C519.6,28.31,522.19,37.52,522.19,51.17z"/>
	</g>
</g>
</svg>
