<?xml version="1.0" encoding="utf-8"?>
<!-- Generator: Adobe Illustrator 25.2.3, SVG Export Plug-In . SVG Version: 6.00 Build 0)  -->
<svg version="1.1" id="レイヤー_1" xmlns="http://www.w3.org/2000/svg" xmlns:xlink="http://www.w3.org/1999/xlink" x="0px"
	 y="0px" viewBox="0 0 157.8 50.2" style="enable-background:new 0 0 157.8 50.2;" xml:space="preserve">
<style type="text/css">
	.st0{fill:#231815;}
</style>
<g>
	<g>
		<path class="st0" d="M8.9,28.5H7.1c-0.2-1.2-0.8-1.9-1.6-2c-0.9-0.1-1.6,0.3-2,1.2C3.2,28.4,3,29.2,3,30.1c0,1.1,0.1,1.9,0.4,2.5
			c0.4,0.8,1.1,1.2,2,1.2c0.9-0.1,1.4-0.7,1.7-1.7h1.9c-0.2,1.3-0.8,2.3-1.9,2.8c-0.8,0.5-1.7,0.6-2.8,0.3c-0.9-0.2-1.6-0.7-2.1-1.6
			c-0.4-0.6-0.7-1.5-0.9-2.6c-0.1-1.3,0-2.5,0.5-3.5C2.3,26.4,3,25.7,4,25.4c1.6-0.5,2.9-0.1,4,1C8.4,26.9,8.7,27.6,8.9,28.5z"/>
		<path class="st0" d="M9.9,35.3l2.8-10h1.9l2.7,10h-1.8L15,33.2h-2.9l-0.5,2.1H9.9z M12.5,31.7h2.1l-1.1-4.2L12.5,31.7z"/>
		<path class="st0" d="M18.4,35.4V25.3h6v1.5h-4.3v2.5h3.8v1.6h-3.8v4.5H18.4z"/>
		<path class="st0" d="M25.6,35.3v-10h6v1.5h-4.3v2.5h3.8v1.6h-3.8v3h4.4v1.5H25.6z"/>
		<path class="st0" d="M37.1,35.3l2.8-10h1.9l2.7,10h-1.8l-0.5-2.1h-2.9l-0.5,2.1H37.1z M39.8,31.7h2.1l-1.1-4.2L39.8,31.7z"/>
		<path class="st0" d="M45.7,35.3v-10h1.9l3.5,6.8v-6.8h1.7v10H51l-3.6-7v7H45.7z"/>
		<path class="st0" d="M54.3,25.3h2.7c1,0,1.9,0.4,2.7,1.1c0.9,0.8,1.3,2.1,1.3,4c0,1.9-0.4,3.2-1.3,4C59,35,58.1,35.4,57,35.4h-2.7
			V25.3z M55.9,33.8H57c0.6,0,1.1-0.2,1.6-0.7c0.5-0.5,0.7-1.4,0.7-2.8c0-1.4-0.2-2.3-0.7-2.8c-0.5-0.5-1-0.7-1.6-0.7h-1.1V33.8z"/>
		<path class="st0" d="M66.9,35.4V25.3h1.7v4.1l3.2-4.1h2l-3.1,3.9l3.4,6.2h-1.9l-2.6-4.8l-1,1.2v3.6H66.9z"/>
		<path class="st0" d="M75,35.3v-10H77l3.5,6.8v-6.8h1.7v10h-1.8l-3.6-7v7H75z"/>
		<path class="st0" d="M83.9,35.4V25.3h1.8v10.1H83.9z"/>
		<path class="st0" d="M94.7,28.5h-1.8c-0.2-1.2-0.8-1.9-1.6-2c-0.9-0.1-1.6,0.3-2,1.2c-0.3,0.6-0.5,1.5-0.5,2.4
			c0,1.1,0.1,1.9,0.4,2.5c0.4,0.8,1.1,1.2,2,1.2c0.9-0.1,1.4-0.7,1.7-1.7h1.9c-0.2,1.3-0.8,2.3-1.9,2.8c-0.8,0.5-1.7,0.6-2.8,0.3
			c-0.9-0.2-1.6-0.7-2.1-1.6c-0.4-0.6-0.7-1.5-0.9-2.6c-0.1-1.3,0-2.5,0.5-3.5c0.5-1.1,1.2-1.9,2.2-2.2c1.6-0.5,2.9-0.1,4,1
			C94.2,26.9,94.5,27.6,94.7,28.5z"/>
		<path class="st0" d="M96,35.4V25.3h1.7v4.1l3.2-4.1h2l-3.1,3.9l3.4,6.2h-1.9l-2.6-4.8l-1,1.2v3.6H96z"/>
		<path class="st0" d="M103,29.8h4.4v1.4H103V29.8z"/>
		<path class="st0" d="M109,35.4V25.3h1.7v4.1l3.2-4.1h2l-3.1,3.9l3.4,6.2h-1.9l-2.6-4.8l-1,1.2v3.6H109z"/>
		<path class="st0" d="M117.1,35.3v-10h1.9l3.5,6.8v-6.8h1.7v10h-1.8l-3.6-7v7H117.1z"/>
		<path class="st0" d="M125.3,35.3l2.8-10h1.9l2.7,10H131l-0.5-2.1h-2.9l-0.5,2.1H125.3z M128,31.7h2.1l-1.1-4.2L128,31.7z"/>
		<path class="st0" d="M141.1,28.5h-1.8c-0.2-1.2-0.8-1.9-1.6-2c-0.9-0.1-1.6,0.3-2,1.2c-0.3,0.6-0.5,1.5-0.5,2.4
			c0,1.1,0.1,1.9,0.4,2.5c0.4,0.8,1.1,1.2,2,1.2c0.9-0.1,1.4-0.7,1.7-1.7h1.9c-0.2,1.3-0.8,2.3-1.9,2.8c-0.8,0.5-1.7,0.6-2.8,0.3
			c-0.9-0.2-1.6-0.7-2.1-1.6c-0.4-0.6-0.7-1.5-0.9-2.6c-0.1-1.3,0-2.5,0.5-3.5c0.5-1.1,1.2-1.9,2.2-2.2c1.6-0.5,2.9-0.1,4,1
			C140.6,26.9,140.9,27.6,141.1,28.5z"/>
		<path class="st0" d="M142.5,35.4V25.3h1.7v4.1l3.2-4.1h2l-3.1,3.9l3.4,6.2h-1.9l-2.6-4.8l-1,1.2v3.6H142.5z"/>
		<path class="st0" d="M150.1,32h1.7c0.1,0.5,0.2,0.9,0.3,1.1c0.1,0.3,0.4,0.5,0.7,0.6c0.5,0.2,0.9,0.2,1.4,0
			c0.6-0.3,0.9-0.6,0.9-1.1c0-0.6-0.3-1-0.9-1.2l-2.2-0.9c-0.3-0.1-0.6-0.3-1-0.6c-0.5-0.4-0.7-1-0.7-1.7c0-0.7,0.2-1.3,0.6-1.8
			c0.6-0.7,1.4-1.1,2.4-1.1c0.9,0,1.7,0.3,2.4,0.9c0.6,0.6,0.9,1.3,0.9,2.2h-1.6c-0.1-0.9-0.6-1.4-1.2-1.6c-0.4-0.1-0.8-0.1-1.2,0.1
			c-0.4,0.2-0.5,0.6-0.5,1.1c0,0.3,0.1,0.5,0.3,0.7s0.5,0.4,0.9,0.5l1.8,0.7c0.4,0.2,0.8,0.4,1.1,0.7c0.5,0.4,0.7,1,0.7,1.7
			c0,0.6-0.1,1.1-0.3,1.5c-0.2,0.5-0.6,0.8-1,1c-1,0.6-2.1,0.7-3.3,0.4C151.1,34.9,150.3,33.8,150.1,32z"/>
	</g>
	<g>
		<path class="st0" d="M25.5,39.2h1.7v4.1h3.4v-4.1h1.8v10.1h-1.8v-4.4h-3.4v4.4h-1.7V39.2z"/>
		<path class="st0" d="M33.8,49.3l2.8-10h1.9l2.7,10h-1.8L39,47.2h-2.9l-0.5,2.1H33.8z M36.4,45.7h2.1l-1.1-4.2L36.4,45.7z"/>
		<path class="st0" d="M41.5,39.3h1.8l2,7.1l1.9-7.1h1.8l-2.8,10h-1.8L41.5,39.3z"/>
		<path class="st0" d="M49.9,49.3v-10h6v1.5h-4.3v2.5h3.8v1.6h-3.8v3H56v1.5H49.9z"/>
		<path class="st0" d="M61.4,49.3l2.8-10h1.9l2.7,10h-1.8l-0.5-2.1h-2.9l-0.5,2.1H61.4z M64.1,45.7h2.1l-1.1-4.2L64.1,45.7z"/>
		<path class="st0" d="M74.4,49.3v-10h1.9l3.5,6.8v-6.8h1.7v10h-1.8l-3.6-7v7H74.4z"/>
		<path class="st0" d="M83.2,49.4V39.2H85v10.1H83.2z"/>
		<path class="st0" d="M94,42.5h-1.8c-0.2-1.2-0.8-1.9-1.6-2c-0.9-0.1-1.6,0.3-2,1.2c-0.3,0.6-0.5,1.5-0.5,2.4
			c0,1.1,0.1,1.9,0.4,2.5c0.4,0.8,1.1,1.2,2,1.2c0.9-0.1,1.4-0.7,1.7-1.7h1.9c-0.2,1.3-0.8,2.3-1.9,2.8c-0.8,0.5-1.7,0.6-2.8,0.3
			c-0.9-0.2-1.6-0.7-2.1-1.6c-0.4-0.6-0.7-1.5-0.9-2.6c-0.1-1.3,0-2.5,0.5-3.5c0.5-1.1,1.2-1.9,2.2-2.2c1.6-0.5,2.9-0.1,4,1
			C93.5,40.9,93.8,41.6,94,42.5z"/>
		<path class="st0" d="M95.4,49.3v-10h6v1.5h-4.3v2.5h3.8v1.6h-3.8v3h4.4v1.5H95.4z"/>
		<path class="st0" d="M107.3,39.2h2.7c1,0,1.9,0.4,2.7,1.1c0.9,0.8,1.3,2.1,1.3,4c0,1.9-0.4,3.2-1.3,4c-0.8,0.7-1.7,1.1-2.8,1.1
			h-2.7V39.2z M108.9,47.8h1.1c0.6,0,1.1-0.2,1.6-0.7c0.5-0.5,0.7-1.4,0.7-2.8c0-1.4-0.2-2.3-0.7-2.8c-0.5-0.5-1-0.7-1.6-0.7h-1.1
			V47.8z"/>
		<path class="st0" d="M114.6,49.3l2.8-10h1.9l2.7,10h-1.8l-0.5-2.1h-2.9l-0.5,2.1H114.6z M117.3,45.7h2.1l-1.1-4.2L117.3,45.7z"/>
		<path class="st0" d="M121.7,39.3h2l1.7,3.8l1.6-3.8h2l-2.7,6v4h-1.9v-4L121.7,39.3z"/>
		<path class="st0" d="M131.6,49.6c-0.4,0-0.7-0.1-1-0.4c-0.2-0.2-0.3-0.4-0.3-0.7c0-0.3,0.1-0.6,0.4-0.8c0.2-0.2,0.5-0.3,0.8-0.3
			c0.4,0,0.6,0.1,0.9,0.3c0.2,0.2,0.4,0.5,0.4,0.8c0,0.3-0.1,0.5-0.3,0.7C132.3,49.5,132,49.6,131.6,49.6z M130.5,42v-2.8h2.3V42
			l-0.5,4.8h-1.4L130.5,42z"/>
	</g>
	<g>
		<path class="st0" d="M1.3,1.4h3.5v8.4h7.1V1.4h3.6v20.9h-3.6v-9.1H4.8v9.1H1.3V1.4z"/>
		<path class="st0" d="M18.3,22.3l5.8-20.9h4l5.7,20.9h-3.6l-1-4.6h-6l-1,4.6H18.3z M23.9,14.6h4.4l-2.2-8.6L23.9,14.6z"/>
		<path class="st0" d="M36.4,22.3V1.4h3.4V19H49v3.3H36.4z"/>
		<path class="st0" d="M50.7,1.4h3.5V14c0,2.9,0.9,4.5,2.8,4.9c1.4,0.1,2.4-0.2,3-1.1c0.5-0.7,0.8-2,0.8-3.8V1.4h3.5v12.7
			c0,3.1-0.7,5.4-2.1,6.6c-1.2,1.1-2.6,1.6-4.3,1.6c-2,0-3.6-0.5-4.7-1.6c-1.6-1.5-2.4-3.7-2.4-6.6V1.4z"/>
		<path class="st0" d="M77.6,15.4h3.5c0.1,1,0.4,1.8,0.7,2.3c0.3,0.5,0.8,0.9,1.5,1.2c1,0.3,1.9,0.4,2.9,0.1
			c1.2-0.5,1.8-1.3,1.8-2.3c0-1.2-0.6-2-1.8-2.5l-4.6-1.8c-0.7-0.3-1.3-0.7-2-1.3c-1-0.9-1.4-2.1-1.4-3.6c0-1.5,0.4-2.7,1.3-3.8
			c1.3-1.5,3-2.2,5-2.3C86.4,1.4,88,2,89.4,3.3c1.2,1.1,1.8,2.7,1.9,4.6h-3.3c-0.3-1.8-1.1-2.9-2.5-3.3c-0.9-0.3-1.7-0.2-2.4,0.3
			c-0.7,0.5-1.1,1.2-1.1,2.3c0,0.5,0.2,1,0.7,1.4c0.4,0.4,1,0.7,1.8,1l3.8,1.5c0.9,0.4,1.7,0.9,2.3,1.5c1,0.9,1.4,2,1.4,3.5
			c0,1.2-0.2,2.2-0.7,3c-0.5,0.9-1.2,1.6-2,2.1c-2.1,1.2-4.3,1.5-6.7,0.8C79.5,21.2,77.9,19,77.6,15.4z"/>
		<path class="st0" d="M92.7,4.7V1.4h14v3.3h-5.2v17.6H98V4.7H92.7z"/>
		<path class="st0" d="M137.5,13.4c0.8-0.3,1.6-0.7,2.2-1.3c1.1-1,1.7-2.5,1.7-4.6c0-2-0.6-3.5-1.8-4.6c-1.2-1.1-2.7-1.6-4.6-1.6
			H127v20.9h3.5v-8.6h3.6l4.4,8.6h3.5L137.5,13.4z M130.5,4.5h3.8c1.1,0,2,0.3,2.7,0.9c0.4,0.4,0.7,1.1,0.7,2.2c0,1-0.2,1.8-0.7,2.2
			c-0.7,0.6-1.6,0.9-2.7,0.9h-3.8V4.5z"/>
		<path class="st0" d="M144.4,22.3V1.4h12.4v3.1h-8.8v5.1h7.8v3.2h-7.8v6.3h9.1v3.1H144.4z"/>
		<path class="st0" d="M121.1,3.4L121.1,3.4c-1.4-1.3-3.2-1.9-5.2-1.9c-2,0-3.7,0.6-5.2,1.9c-1.9,1.7-2.9,4.5-2.9,8.5
			c0,4,1,6.8,2.9,8.5c1.4,1.3,3.2,1.9,5.2,1.9c2,0,3.7-0.6,5.2-1.9c1.9-1.7,2.9-4.5,2.9-8.5C124,7.9,123,5,121.1,3.4z M120.3,11.9
			c0,3.2-0.6,5.3-1.8,6.3c-0.8,0.7-1.6,1-2.6,1c-1,0-1.8-0.3-2.6-1c-1.2-1-1.8-3.2-1.8-6.3c0-3.2,0.6-5.3,1.8-6.3
			c0.8-0.7,1.6-1,2.6-1c1,0,1.8,0.3,2.6,1C119.7,6.6,120.3,8.7,120.3,11.9z"/>
	</g>
</g>
</svg>
