<?xml version="1.0" encoding="utf-8"?>
<!-- Generator: Adobe Illustrator 25.3.1, SVG Export Plug-In . SVG Version: 6.00 Build 0)  -->
<svg version="1.1" id="レイヤー_1" xmlns="http://www.w3.org/2000/svg" xmlns:xlink="http://www.w3.org/1999/xlink" x="0px"
	 y="0px" viewBox="0 0 143.3 144.2" style="enable-background:new 0 0 143.3 144.2;" xml:space="preserve">
<style type="text/css">
	.st0{fill:#FFFFFF;}
</style>
<g>
	<polygon class="st0" points="43.5,31.8 57.2,31.8 57.2,64.6 84.7,64.6 84.7,31.8 98.9,31.8 98.9,113.1 84.7,113.1 84.7,77.5 
		57.2,77.5 57.2,113.1 43.5,113.1 	"/>
	<g>
		<path class="st0" d="M33.8,21.2l2.1,3.1l2.7-1.9l-2.2-3.1l1.5-1l5.6,8l-1.5,1l-2.4-3.5L37,25.8l2.4,3.5l-1.5,1l-5.6-8L33.8,21.2z"
			/>
		<path class="st0" d="M44.1,15.1l7.1,7.4l-1.7,0.8L48,21.6L45.3,23l0.4,2.2L44,26l-1.6-10.1L44.1,15.1z M46.8,20.4l-2.5-2.8l0,0
			l0.6,3.7L46.8,20.4z"/>
		<path class="st0" d="M50.3,12.5l2.5,7.6l3.8-1.3l0.6,1.7l-5.4,1.8l-3.1-9.3L50.3,12.5z"/>
		<path class="st0" d="M63.8,18.4c-0.5,0.7-1.3,1.2-2.3,1.4c-1.1,0.2-2,0-2.7-0.5c-0.7-0.5-1.2-1.4-1.4-2.7l-1.1-6l1.8-0.3l1.1,6
			c0,0.3,0.1,0.5,0.2,0.8c0.1,0.2,0.2,0.5,0.4,0.6c0.2,0.2,0.4,0.3,0.6,0.4c0.2,0.1,0.5,0.1,0.9,0c0.6-0.1,1-0.4,1.2-0.7
			c0.2-0.4,0.2-0.9,0.1-1.7l-1.1-6l1.8-0.3l1.1,6C64.4,16.7,64.3,17.7,63.8,18.4z"/>
		<path class="st0" d="M70.9,16.3c0.1,0.2,0.2,0.4,0.4,0.6c0.2,0.1,0.3,0.3,0.6,0.3c0.2,0.1,0.4,0.1,0.7,0.1c0.2,0,0.3,0,0.5,0
			c0.2,0,0.3-0.1,0.5-0.2c0.2-0.1,0.3-0.2,0.4-0.4c0.1-0.2,0.2-0.4,0.2-0.6c0-0.3-0.1-0.5-0.2-0.6c-0.1-0.2-0.3-0.3-0.5-0.4
			c-0.2-0.1-0.5-0.2-0.8-0.3c-0.3-0.1-0.6-0.2-0.9-0.3c-0.3-0.1-0.6-0.2-0.9-0.4c-0.3-0.1-0.5-0.3-0.8-0.5c-0.2-0.2-0.4-0.5-0.5-0.8
			c-0.1-0.3-0.2-0.7-0.2-1.2c0-0.5,0.1-0.9,0.3-1.3c0.2-0.4,0.4-0.7,0.7-0.9c0.3-0.2,0.6-0.4,1-0.5c0.4-0.1,0.7-0.2,1.1-0.2
			c0.4,0,0.8,0.1,1.2,0.2c0.4,0.1,0.7,0.3,1,0.6c0.3,0.3,0.5,0.6,0.7,1c0.2,0.4,0.2,0.9,0.2,1.5l-1.7,0c0-0.3-0.1-0.5-0.1-0.7
			c-0.1-0.2-0.2-0.3-0.3-0.5c-0.1-0.1-0.3-0.2-0.5-0.2c-0.2,0-0.4-0.1-0.6-0.1c-0.1,0-0.3,0-0.4,0c-0.1,0-0.3,0.1-0.4,0.2
			c-0.1,0.1-0.2,0.2-0.3,0.3c-0.1,0.1-0.1,0.3-0.1,0.5c0,0.2,0,0.3,0.1,0.5c0.1,0.1,0.2,0.2,0.4,0.3c0.2,0.1,0.4,0.2,0.7,0.3
			c0.3,0.1,0.7,0.2,1.2,0.4c0.1,0,0.4,0.1,0.6,0.2c0.3,0.1,0.5,0.3,0.8,0.5c0.3,0.2,0.5,0.5,0.7,0.9c0.2,0.4,0.3,0.8,0.3,1.4
			c0,0.4-0.1,0.9-0.2,1.2c-0.2,0.4-0.4,0.7-0.7,1c-0.3,0.3-0.6,0.5-1.1,0.6C73.5,18.9,73,19,72.5,19c-0.4,0-0.9-0.1-1.3-0.2
			c-0.4-0.1-0.8-0.4-1.1-0.6c-0.3-0.3-0.6-0.7-0.7-1.1c-0.2-0.4-0.3-1-0.2-1.6l1.7,0C70.8,15.8,70.8,16.1,70.9,16.3z"/>
		<path class="st0" d="M77.4,11l0.3-1.8l6.6,1L84,12l-2.4-0.4l-1.2,7.9l-1.8-0.3l1.2-7.9L77.4,11z"/>
		<path class="st0" d="M85.5,13.4c0.4-0.5,0.8-1,1.2-1.3c0.5-0.3,1-0.6,1.5-0.7c0.5-0.1,1.1-0.1,1.7,0.1c0.6,0.2,1.1,0.5,1.5,0.9
			c0.4,0.4,0.7,0.9,0.9,1.4c0.2,0.5,0.3,1.1,0.3,1.8c0,0.7-0.1,1.3-0.3,2c-0.2,0.7-0.5,1.3-0.8,1.8c-0.4,0.5-0.8,1-1.2,1.3
			c-0.5,0.3-1,0.6-1.5,0.7c-0.5,0.1-1.1,0.1-1.7-0.1c-0.6-0.2-1.1-0.5-1.5-0.9c-0.4-0.4-0.7-0.9-0.9-1.4c-0.2-0.5-0.3-1.1-0.3-1.8
			c0-0.6,0.1-1.3,0.3-2C84.9,14.6,85.2,14,85.5,13.4z M86.1,17c0,0.4,0,0.8,0.1,1.1c0.1,0.3,0.2,0.7,0.4,0.9
			c0.2,0.3,0.5,0.4,0.9,0.6c0.4,0.1,0.7,0.1,1.1,0c0.3-0.1,0.6-0.3,0.9-0.5c0.3-0.2,0.5-0.5,0.7-0.9c0.2-0.3,0.3-0.7,0.5-1.1
			c0.1-0.4,0.2-0.8,0.3-1.2c0-0.4,0-0.8,0-1.1c-0.1-0.3-0.2-0.7-0.4-0.9c-0.2-0.3-0.5-0.5-0.9-0.6c-0.4-0.1-0.7-0.1-1.1,0
			c-0.3,0.1-0.6,0.3-0.9,0.5c-0.3,0.2-0.5,0.6-0.7,0.9c-0.2,0.4-0.4,0.7-0.5,1.2C86.2,16.2,86.2,16.6,86.1,17z"/>
		<path class="st0" d="M100.1,15.9c0.3,0.2,0.6,0.4,0.8,0.6c0.2,0.3,0.3,0.5,0.4,0.9c0.1,0.3,0.1,0.6,0.1,1c0,0.3-0.1,0.7-0.3,1
			c-0.3,0.5-0.6,0.9-0.9,1.2c-0.4,0.3-0.8,0.4-1.3,0.4l0,0c0.2,0.2,0.3,0.3,0.3,0.5c0.1,0.2,0.1,0.4,0.1,0.6c0,0.2,0,0.5-0.1,0.7
			c-0.1,0.2-0.2,0.5-0.2,0.7c-0.1,0.1-0.1,0.3-0.2,0.5c-0.1,0.2-0.2,0.4-0.2,0.6c-0.1,0.2-0.1,0.4-0.2,0.6c-0.1,0.2-0.1,0.4-0.1,0.5
			L96.5,25c0-0.3,0.2-0.7,0.3-1.1c0.2-0.4,0.3-0.8,0.5-1.2c0.2-0.5,0.2-0.9,0.1-1.2c-0.1-0.3-0.3-0.5-0.7-0.7l-1.6-0.8l-1.7,3.4
			l-1.6-0.8l4.3-8.8L100.1,15.9z M97.6,19.6c0.4,0.2,0.7,0.2,1,0.1c0.3-0.1,0.5-0.4,0.7-0.8c0.2-0.4,0.3-0.8,0.2-1.1
			c-0.1-0.3-0.3-0.5-0.7-0.7L97,16.2l-1.2,2.5L97.6,19.6z"/>
		<path class="st0" d="M109.6,21.8l-1,1.5l-3.5-2.4l-1.2,1.7l3.3,2.2l-0.9,1.4l-3.3-2.2l-1.4,2l3.6,2.5l-1,1.5l-5.1-3.5l5.5-8.1
			L109.6,21.8z"/>
		<path class="st0" d="M116.3,31.5c0.1-0.2,0.1-0.4,0.1-0.7c0-0.2,0-0.4-0.1-0.6c-0.1-0.2-0.2-0.4-0.3-0.5c-0.3-0.3-0.6-0.5-0.9-0.5
			c-0.3-0.1-0.7-0.1-1,0c-0.4,0.1-0.7,0.2-1,0.5c-0.3,0.2-0.7,0.5-1,0.8c-0.3,0.3-0.6,0.6-0.8,0.9c-0.2,0.3-0.4,0.7-0.5,1
			c-0.1,0.3-0.1,0.7-0.1,1c0.1,0.3,0.2,0.6,0.5,0.9c0.4,0.4,0.8,0.6,1.3,0.5c0.5-0.1,1-0.3,1.5-0.7l1.2,1.2c-0.5,0.4-1,0.7-1.4,0.9
			c-0.5,0.2-1,0.3-1.4,0.3c-0.5,0-0.9-0.1-1.3-0.2c-0.4-0.2-0.8-0.4-1.2-0.8c-0.4-0.5-0.7-0.9-0.9-1.5c-0.2-0.5-0.2-1.1-0.1-1.7
			c0.1-0.6,0.3-1.1,0.6-1.7c0.3-0.6,0.7-1.1,1.3-1.6c0.5-0.5,1.1-0.9,1.7-1.2c0.6-0.3,1.2-0.5,1.7-0.6c0.6-0.1,1.1,0,1.7,0.2
			c0.5,0.2,1,0.5,1.5,0.9c0.3,0.3,0.5,0.7,0.7,1.1c0.2,0.4,0.2,0.8,0.3,1.2c0,0.4-0.1,0.9-0.3,1.3c-0.2,0.5-0.5,0.9-0.8,1.3
			l-1.2-1.2C116.1,31.9,116.2,31.7,116.3,31.5z"/>
		<path class="st0" d="M123.5,36.5l-6.2,8.1l-1.1-1.5l1.4-1.8l-1.8-2.5l-2.1,0.7l-1-1.5l9.8-3.1L123.5,36.5z M118.6,40l2.3-2.9l0,0
			l-3.5,1.2L118.6,40z"/>
		<path class="st0" d="M128.8,45.7l-1.6,0.8l-1.8-3.5l-2,1l1.6,3l-1.5,0.8l-1.6-3l-3.6,1.9l-0.8-1.6l8.7-4.5L128.8,45.7z"/>
		<path class="st0" d="M131.8,53.5l-1.7,0.6l-1.5-4l-2,0.7l1.4,3.7l-1.6,0.6l-1.4-3.7l-2.3,0.8l1.5,4.1l-1.7,0.6l-2.1-5.8l9.2-3.4
			L131.8,53.5z"/>
		<path class="st0" d="M133.9,63.7l-9.2,4.5l-0.3-1.8l2.1-0.9l-0.4-3l-2.3-0.3l-0.3-1.8l10.1,1.6L133.9,63.7z M128,64.7l3.4-1.5l0,0
			l-3.7-0.5L128,64.7z"/>
		<path class="st0" d="M134.5,70.5l-6.6,3.4v0h6.6v1.7l-9.8,0v-1.8l6.6-3.4v0l-6.6,0l0-1.7l9.8,0L134.5,70.5z"/>
		<path class="st0" d="M133.7,82c-0.1,0.5-0.3,1-0.5,1.4c-0.3,0.4-0.6,0.8-1.1,1c-0.4,0.3-1,0.4-1.6,0.5c-0.6,0.1-1.3,0.1-2.1-0.1
			c-0.7-0.1-1.3-0.3-1.9-0.5c-0.6-0.2-1-0.5-1.4-0.9c-0.4-0.4-0.7-0.8-0.8-1.3c-0.2-0.5-0.2-1-0.1-1.7l0.5-3.5l9.7,1.5L133.7,82z
			 M125.9,80.6c0,0.3,0,0.5,0,0.8c0.1,0.3,0.2,0.5,0.4,0.7c0.2,0.2,0.5,0.4,0.8,0.6c0.4,0.2,0.8,0.3,1.3,0.4
			c0.5,0.1,0.9,0.1,1.3,0.1c0.4,0,0.8-0.1,1.1-0.2c0.3-0.1,0.6-0.3,0.8-0.6c0.2-0.3,0.3-0.6,0.4-1.1l0.2-1.3l-6.1-1L125.9,80.6z"/>
		<path class="st0" d="M130.8,93.5l-3.8-1.5l2.7,4.4l-0.8,2.1l-2.5-4.4l-6.8,1.1l0.8-2.1l5-0.7l-0.8-1.4l-2.9-1.1l0.6-1.7l9.1,3.5
			L130.8,93.5z"/>
		<path class="st0" d="M126.9,102.3l-7.4-0.3l0,0l5.7,3.3l-0.8,1.4l-8.5-4.9l0.9-1.5l7.4,0.3l0,0l-5.7-3.3l0.8-1.5l8.5,4.9
			L126.9,102.3z"/>
		<path class="st0" d="M121.8,110.2l-7.9-5.8l1.1-1.4l7.9,5.8L121.8,110.2z"/>
		<path class="st0" d="M114.8,114.4c0.2,0.1,0.4,0.1,0.7,0.1c0.2,0,0.4-0.1,0.6-0.2c0.2-0.1,0.4-0.2,0.5-0.4
			c0.3-0.3,0.4-0.6,0.5-0.9c0.1-0.3,0-0.7-0.1-1c-0.1-0.3-0.3-0.7-0.5-1c-0.2-0.3-0.5-0.6-0.8-0.9c-0.3-0.3-0.6-0.5-1-0.7
			c-0.3-0.2-0.7-0.3-1-0.4c-0.3-0.1-0.7-0.1-1,0c-0.3,0.1-0.6,0.3-0.9,0.6c-0.4,0.4-0.5,0.9-0.4,1.4c0.1,0.5,0.4,1,0.8,1.5l-1.2,1.3
			c-0.4-0.5-0.8-0.9-1-1.4c-0.2-0.5-0.4-0.9-0.4-1.4c0-0.5,0-0.9,0.2-1.3c0.1-0.4,0.4-0.8,0.7-1.2c0.4-0.5,0.9-0.8,1.4-1
			c0.5-0.2,1.1-0.3,1.6-0.2c0.6,0.1,1.1,0.2,1.7,0.5c0.6,0.3,1.1,0.7,1.7,1.1c0.5,0.5,1,1,1.3,1.6c0.3,0.6,0.6,1.1,0.7,1.7
			c0.1,0.6,0.1,1.1,0,1.7c-0.1,0.5-0.4,1-0.8,1.5c-0.3,0.3-0.6,0.6-1,0.8c-0.4,0.2-0.8,0.3-1.2,0.3c-0.4,0-0.9,0-1.3-0.2
			c-0.5-0.1-0.9-0.4-1.4-0.7l1.2-1.3C114.4,114.2,114.6,114.4,114.8,114.4z"/>
		<path class="st0" d="M112.1,120.5l-2.5-3.2l0.1,5.2l-1.7,1.4l0.1-5l-6.4-2.4l1.7-1.4l4.7,1.9l0-1.6l-2-2.5l1.4-1.1l6.1,7.6
			L112.1,120.5z"/>
		<path class="st0" d="M100.5,122.3l-0.9-1.4l2.9-1.8l0.9,1.4L100.5,122.3z"/>
		<path class="st0" d="M99.5,128.8l-1.7-3.7l-1.2,5l-2,1l1.2-4.8l-5.7-3.9l2-0.9l4.1,2.9l0.4-1.6l-1.3-2.9l1.6-0.8l4.2,8.9
			L99.5,128.8z"/>
		<path class="st0" d="M90.6,132.4l-5.1-5.3l0,0l1.8,6.3l-1.6,0.5l-2.8-9.4l1.7-0.5l5.1,5.3l0,0L88,123l1.6-0.5l2.7,9.4L90.6,132.4z
			"/>
		<path class="st0" d="M78.9,134.9l-4.3-9.3l1.8-0.3l0.9,2.1l3-0.4l0.3-2.2l1.8-0.2l-1.7,10.1L78.9,134.9z M78,129l1.5,3.4l0,0
			l0.6-3.7L78,129z"/>
		<path class="st0" d="M68.7,132.8c0.1,0.2,0.2,0.4,0.4,0.5c0.2,0.2,0.3,0.3,0.5,0.4c0.2,0.1,0.4,0.1,0.6,0.1c0.4,0,0.7-0.1,1-0.3
			c0.3-0.2,0.5-0.4,0.7-0.7c0.2-0.3,0.3-0.7,0.4-1.1c0.1-0.4,0.1-0.8,0.1-1.2c0-0.4,0-0.8-0.1-1.2c-0.1-0.4-0.2-0.7-0.4-1.1
			c-0.2-0.3-0.4-0.6-0.7-0.8c-0.3-0.2-0.6-0.3-1-0.3c-0.5,0-1,0.2-1.3,0.6c-0.3,0.4-0.5,0.9-0.6,1.6l-1.7,0c0.1-0.6,0.2-1.2,0.4-1.7
			c0.2-0.5,0.5-0.9,0.8-1.3c0.3-0.3,0.7-0.6,1.1-0.8c0.4-0.2,0.9-0.3,1.4-0.3c0.6,0,1.2,0.1,1.7,0.4c0.5,0.3,0.9,0.6,1.2,1.1
			c0.3,0.5,0.6,1,0.8,1.6c0.2,0.6,0.3,1.3,0.2,2c0,0.7-0.1,1.4-0.3,2c-0.2,0.6-0.5,1.2-0.8,1.6c-0.3,0.5-0.8,0.8-1.3,1.1
			c-0.5,0.3-1.1,0.4-1.7,0.4c-0.4,0-0.9-0.1-1.3-0.2c-0.4-0.2-0.7-0.4-1.1-0.7c-0.3-0.3-0.6-0.7-0.8-1.1c-0.2-0.4-0.3-1-0.4-1.5
			l1.7,0C68.5,132.3,68.6,132.5,68.7,132.8z"/>
		<path class="st0" d="M62.3,134.8l0.7-4l-3.8,3.5l-2.2-0.4l3.8-3.3l-2.5-6.4l2.2,0.4l1.7,4.7l1.2-1.1l0.5-3.1l1.8,0.3l-1.6,9.7
			L62.3,134.8z"/>
		<path class="st0" d="M55.7,125.8c0-0.2-0.1-0.5-0.2-0.6c-0.1-0.2-0.3-0.3-0.4-0.5c-0.2-0.1-0.4-0.2-0.6-0.3
			c-0.2,0-0.3-0.1-0.5-0.1c-0.2,0-0.4,0-0.5,0c-0.2,0-0.3,0.1-0.5,0.2c-0.1,0.1-0.3,0.3-0.3,0.5c-0.1,0.3-0.1,0.5,0,0.7
			c0.1,0.2,0.2,0.4,0.4,0.6c0.2,0.2,0.4,0.3,0.7,0.5c0.2,0.2,0.5,0.3,0.8,0.5c0.3,0.2,0.5,0.4,0.7,0.6c0.2,0.2,0.4,0.5,0.6,0.7
			c0.2,0.3,0.2,0.6,0.3,0.9c0,0.3,0,0.7-0.1,1.2c-0.2,0.5-0.4,0.9-0.7,1.2c-0.3,0.3-0.6,0.5-0.9,0.7c-0.3,0.1-0.7,0.2-1.1,0.2
			c-0.4,0-0.8,0-1.1-0.2c-0.4-0.1-0.8-0.3-1.1-0.5c-0.3-0.2-0.6-0.5-0.8-0.8c-0.2-0.3-0.3-0.7-0.4-1.2c-0.1-0.4,0-0.9,0.2-1.5
			l1.6,0.5c-0.1,0.3-0.1,0.5-0.1,0.7c0,0.2,0.1,0.4,0.2,0.5c0.1,0.1,0.2,0.3,0.4,0.4c0.2,0.1,0.3,0.2,0.6,0.3c0.1,0,0.3,0.1,0.4,0.1
			c0.1,0,0.3,0,0.4-0.1c0.1-0.1,0.3-0.1,0.4-0.2c0.1-0.1,0.2-0.3,0.3-0.5c0.1-0.2,0.1-0.3,0.1-0.5c0-0.1-0.1-0.3-0.2-0.4
			c-0.1-0.2-0.3-0.3-0.6-0.5c-0.3-0.2-0.6-0.4-1.1-0.7c-0.1-0.1-0.3-0.2-0.5-0.4c-0.2-0.2-0.4-0.4-0.6-0.7c-0.2-0.3-0.3-0.6-0.4-1
			c-0.1-0.4,0-0.9,0.1-1.4c0.1-0.4,0.3-0.8,0.6-1.1c0.3-0.3,0.6-0.6,0.9-0.7c0.4-0.2,0.8-0.3,1.2-0.3c0.4,0,0.9,0.1,1.5,0.2
			c0.4,0.1,0.8,0.3,1.2,0.6c0.4,0.3,0.6,0.6,0.9,0.9c0.2,0.4,0.4,0.8,0.4,1.3c0,0.5,0,1-0.2,1.6l-1.7-0.5
			C55.7,126.3,55.7,126.1,55.7,125.8z"/>
		<path class="st0" d="M41.5,128l1.9-3.3l-2.9-1.6l-1.9,3.3l-1.6-0.9l4.8-8.5l1.6,0.9l-2.1,3.7l2.9,1.6l2.1-3.7l1.6,0.9l-4.8,8.5
			L41.5,128z"/>
		<path class="st0" d="M31.5,121.3l3.7-9.6l1.5,1.1l-0.9,2.1l2.4,1.9l1.9-1.3l1.4,1.1l-8.5,5.8L31.5,121.3z M35.1,116.5l-1.4,3.5
			l0,0l3-2.2L35.1,116.5z"/>
		<path class="st0" d="M33.9,110.3l-5.2,8.7l-1.3-1.3l3.7-6.1l0,0l-6.2,3.5l-1.3-1.3l8.9-4.9L33.9,110.3z"/>
		<path class="st0" d="M18.8,107.6l1.4-1.1l2.6,3.4l1.7-1.3l-2.4-3.1l1.3-1l2.4,3.1l1.9-1.5l-2.7-3.5l1.4-1.1l3.8,4.9l-7.8,6
			L18.8,107.6z"/>
		<path class="st0" d="M13.7,98.3l7.6-6.9l0.8,1.7l-1.7,1.5l1.3,2.7l2.2-0.4l0.8,1.6L14.5,100L13.7,98.3z M19.1,95.7l-2.8,2.5l0,0
			l3.7-0.6L19.1,95.7z"/>
		<path class="st0" d="M10.1,88.3l5.6-4.8l0,0l-6.4,1.5l-0.4-1.6l9.5-2.2l0.4,1.7l-5.6,4.8l0,0l6.4-1.5l0.4,1.6L10.5,90L10.1,88.3z"
			/>
		<path class="st0" d="M8.4,78.9l9.7-1.2l0.2,1.8l-9.7,1.2L8.4,78.9z"/>
		<path class="st0" d="M10.6,71.1c-0.2,0.1-0.4,0.2-0.5,0.4c-0.2,0.2-0.3,0.3-0.4,0.5c-0.1,0.2-0.1,0.4-0.1,0.6c0,0.4,0.1,0.7,0.3,1
			c0.2,0.3,0.4,0.5,0.8,0.7c0.3,0.2,0.7,0.3,1.1,0.4c0.4,0.1,0.8,0.1,1.2,0.1c0.4,0,0.8,0,1.2-0.1c0.4-0.1,0.7-0.2,1-0.4
			c0.3-0.2,0.6-0.4,0.7-0.7c0.2-0.3,0.3-0.6,0.3-1c0-0.5-0.2-1-0.6-1.3c-0.4-0.3-0.9-0.5-1.6-0.5l0-1.7c0.6,0,1.2,0.2,1.7,0.3
			c0.5,0.2,0.9,0.4,1.3,0.7c0.4,0.3,0.6,0.7,0.8,1.1c0.2,0.4,0.3,0.9,0.3,1.4c0,0.6-0.1,1.2-0.4,1.7c-0.3,0.5-0.6,0.9-1.1,1.3
			c-0.5,0.3-1,0.6-1.6,0.8c-0.6,0.2-1.3,0.3-2,0.3c-0.7,0-1.4-0.1-2-0.3c-0.6-0.2-1.2-0.4-1.6-0.8c-0.5-0.3-0.8-0.8-1.1-1.2
			c-0.3-0.5-0.4-1.1-0.4-1.7c0-0.4,0.1-0.9,0.2-1.3c0.2-0.4,0.4-0.8,0.7-1.1C9,70,9.4,69.8,9.8,69.6c0.4-0.2,0.9-0.3,1.5-0.4l0,1.7
			C11.1,70.9,10.9,71,10.6,71.1z"/>
		<path class="st0" d="M9,60.6l1.8,0.2l-0.6,4.2l2.1,0.3l0.5-3.9l1.7,0.2L14,65.6l2.4,0.3l0.6-4.3l1.8,0.2l-0.8,6.1l-9.7-1.3L9,60.6
			z"/>
		<path class="st0" d="M11.7,51c0.2-0.5,0.4-0.9,0.8-1.3c0.3-0.4,0.8-0.6,1.2-0.8c0.5-0.2,1.1-0.3,1.7-0.2c0.6,0,1.3,0.2,2.1,0.4
			c0.7,0.2,1.3,0.5,1.8,0.9c0.5,0.3,0.9,0.7,1.2,1.2c0.3,0.4,0.5,0.9,0.6,1.4c0.1,0.5,0,1.1-0.2,1.7l-1.2,3.3l-9.2-3.3L11.7,51z
			 M19.2,53.8c0.1-0.2,0.1-0.5,0.1-0.8c0-0.3-0.1-0.5-0.3-0.8c-0.2-0.3-0.4-0.5-0.7-0.7c-0.3-0.2-0.7-0.4-1.2-0.6
			c-0.5-0.2-0.9-0.3-1.3-0.3c-0.4-0.1-0.8-0.1-1.1,0c-0.3,0.1-0.6,0.2-0.9,0.5c-0.2,0.2-0.4,0.6-0.6,1l-0.4,1.2l5.8,2L19.2,53.8z"/>
		<path class="st0" d="M15.9,41.6L26,43.5l-0.9,1.6l-2.2-0.5l-1.4,2.7l1.6,1.6l-0.8,1.6L15,43.2L15.9,41.6z M21.3,44.3l-3.7-0.8l0,0
			l2.7,2.6L21.3,44.3z"/>
		<path class="st0" d="M17.4,38.8l1.2-1.6l4.2,0.7l-2.1-3.8l1.2-1.6l3.2,5.9l3.1,2.2l-1,1.5L24,39.8L17.4,38.8z"/>
		<path class="st0" d="M29.8,34l-0.5,0.6l-3.4-2.5l-1.9-1.8l1.1-1.2l1.9,1.8L29.8,34z M30.7,34.2l1.6,1.4l-1.2,1.3l-1.6-1.4
			L30.7,34.2z"/>
	</g>
</g>
</svg>
