<?xml version="1.0" encoding="utf-8"?>
<!-- Generator: Adobe Illustrator 25.2.3, SVG Export Plug-In . SVG Version: 6.00 Build 0)  -->
<svg version="1.1" id="レイヤー_1" xmlns="http://www.w3.org/2000/svg" xmlns:xlink="http://www.w3.org/1999/xlink" x="0px"
	 y="0px" viewBox="0 0 324.5 236.9" style="enable-background:new 0 0 324.5 236.9;" xml:space="preserve">
<style type="text/css">
	.st0{opacity:0.56;}
	.st1{fill:#9E925E;}
	.st2{opacity:0.7;}
	.st3{fill:url(#SVGID_1_);}
	.st4{fill:#811313;}
	.st5{clip-path:url(#SVGID_4_);}
	.st6{fill:url(#SVGID_5_);}
	.st7{fill:url(#SVGID_6_);}
	.st8{clip-path:url(#SVGID_8_);}
	.st9{fill:url(#SVGID_9_);}
	.st10{clip-path:url(#SVGID_11_);}
	.st11{fill:url(#SVGID_12_);}
	.st12{clip-path:url(#SVGID_14_);}
	.st13{fill:url(#SVGID_15_);}
</style>
<g class="st0">
	<path class="st1" d="M317.1,228.9c-0.8,0.8,0.3-0.1-0.8-0.1c-1.1,0-1.1,2.4-2.3,2.4s-1.1,1-2.3,1s-1.1-2.6-2.3-2.6
		s-1.1,0.1-2.3,0.1s-1.1,1-2.3,1s-1.1,2.3-2.3,2.3s-1.1-3.1-2.3-3.1c-1.1,0-1.1,2.5-2.3,2.5s-1.1-0.1-2.3-0.1s-1.1-4.2-2.3-4.2
		s-1.1,3.5-2.3,3.5s-1.1-0.7-2.3-0.7s-1.1-1.3-2.3-1.3c-1.1,0-1.1-0.2-2.3-0.2s-1.1,2-2.3,2s-1.1,0.3-2.3,0.3s-1.1-2.5-2.3-2.5
		s-1.1,2.2-2.3,2.2s-1.1-0.2-2.3-0.2s-1.1-2.9-2.3-2.9c-1.1,0-1.1,0.4-2.3,0.4s-1.1,1.3-2.3,1.3s-1.1,1.7-2.3,1.7s-1.1-2.2-2.3-2.2
		s-1.1-0.4-2.3-0.4s-1.1-0.8-2.3-0.8s-1.1,4.5-2.3,4.5c-1.1,0-1.1,0.1-2.3,0.1c-1.1,0-1.1-5.4-2.3-5.4s-1.1,5.3-2.3,5.3
		s-1.1-1.1-2.3-1.1s-1.1-3.4-2.3-3.4c-1.1,0-1.1,2.2-2.3,2.2s-1.1,2.9-2.3,2.9s-1.1-3.4-2.3-3.4c-1.1,0-1.1-0.6-2.3-0.6
		s-1.1-0.2-2.3-0.2s-1.1-1.1-2.3-1.1c-1.1,0-1.1,5.1-2.3,5.1s-1.1,0.4-2.3,0.4s-1.1-3.2-2.3-3.2s-1.1-0.9-2.3-0.9
		c-1.1,0-1.1,1.8-2.3,1.8s-1.1-0.3-2.3-0.3s-1.1-1.6-2.3-1.6c-1.1,0-1.1,0.9-2.3,0.9s-1.1-1.5-2.3-1.5s-1.1-0.7-2.3-0.7
		c-1.1,0-1.1,3.4-2.3,3.4s-1.1-1.7-2.3-1.7s-1.1,3.8-2.3,3.8s-1.1-5.1-2.3-5.1c-1.1,0-1.1,5.1-2.3,5.1s-1.1-3.5-2.3-3.5
		s-1.1-2-2.3-2c-1.1,0-1.1-0.2-2.3-0.2s-1.1,5.5-2.3,5.5s-1.1-0.7-2.3-0.7c-1.1,0-1.1-0.9-2.3-0.9s-1.1-3.2-2.3-3.2
		s-1.1,0.5-2.3,0.5s-1.1-0.8-2.3-0.8c-1.1,0-1.1,2.5-2.3,2.5s-1.1,2-2.3,2s-1.1-5.1-2.3-5.1c-1.1,0-1.1,0.1-2.3,0.1
		s-1.1,2.8-2.3,2.8s-1.1-1.7-2.3-1.7c-1.1,0-1.1-0.3-2.3-0.3s-1.1,4.3-2.3,4.3s-1.1-4.6-2.3-4.6s-1.1,5-2.3,5
		c-1.1,0-1.1-5.1-2.3-5.1s-1.1-0.6-2.3-0.6s-1.1,1.9-2.3,1.9c-1.1,0-1.1,2.3-2.3,2.3s-1.1-1.6-2.3-1.6s-1.1,1.1-2.3,1.1
		c-1.1,0-1.1-2.6-2.3-2.6s-1.1,3.3-2.3,3.3s-1.1-1.4-2.3-1.4c-1.1,0-1.1,1.2-2.3,1.2s-1.1-0.3-2.3-0.3s-1.1-2.5-2.3-2.5
		c-1.1,0-1.1,3.9-2.3,3.9s-1.1-5.4-2.3-5.4c-1.1,0-1.1,1.7-2.3,1.7c-1.1,0-1.1,3.9-2.3,3.9s-1.1-1.7-2.3-1.7c-1.1,0-1.1-2.4-2.3-2.4
		s-1.1,0.6-2.3,0.6c-1.1,0-1.1-0.8-2.3-0.8c-1.1,0-1.1,0-2.3,0s-1.1-0.6-2.3-0.6c-1.1,0-1.1,1.7-2.3,1.7s-1.1-2-2.3-2
		c-1.1,0-1.1,5.4-2.3,5.4c-1.1,0-1.1-1.9-2.3-1.9s-1.1-2.6-2.3-2.6c-1.1,0-1.1,0.8-2.3,0.8s-1.1,3-2.3,3c-1.1,0-1.1-1.3-2.3-1.3
		c-1.1,0-1.1,1.5-2.3,1.5s-1.1-2.5-2.3-2.5c-1.1,0-1.1-2.3-2.3-2.3s-1.1,0.3-2.3,0.3c-1.1,0-1.1,0.1-2.3,0.1c-1.1,0-1.1,1.6-2.3,1.6
		s-1.1,1.6-2.3,1.6c-1.1,0-1.1,0.7-2.3,0.7s-1.1-0.2-2.3-0.2c-1.1,0-1.1-0.8-2.3-0.8c-1.1,0-1.1-3.4-2.3-3.4s-1.1,0.3-2.3,0.3
		c-1.1,0-1.1,4.8-2.3,4.8c-1.1,0-1.1-4.1-2.3-4.1c-1.1,0-1.1,0.4-2.3,0.4c-1.1,0-1.1,3.7-2.3,3.7s-1.1,0.5-2.3,0.5
		c-1.1,0-1.1-3-2.3-3c-1.1,0-1.1,1.6-2.3,1.6c-1.1,0-1.1,0.4-2.3,0.4c-1.1,0-1.1-3.1-2.3-3.1s-1.1,1.5-2.3,1.5
		c-1.1,0-1.1-2.8-2.3-2.8c-1.1,0-1.1,3-2.3,3s-1.1,2.1-2.3,2.1c-1.1,0-1.1-3.3-2.3-3.3s-1.1-2.1-2.3-2.1c-1.1,0-1.1,1.6-2.3,1.6
		s-1.1,2.1-2.3,2.1s-1.1-2.6-2.3-2.6c-1.1,0-1.1,1.9-2.3,1.9s-1.1-0.7-2.3-0.7s-1.1,3-2.3,3s-1.1-4.3-2.3-4.3S8.2,233,7.1,233
		s-2.3-1.1-3.1-1.9c-0.8-0.8-1.9-2-1.9-3.1c0-1.1,2.8-1.1,2.8-2.3s-0.7-1.1-0.7-2.3s0.7-1.1,0.7-2.3c0-1.1,3-1.1,3-2.3
		S3,217.9,3,216.7s-0.5-1.1-0.5-2.3s3.5-1.1,3.5-2.3c0-1.1-1-1.1-1-2.3s0.8-1.1,0.8-2.3s-0.3-1.1-0.3-2.3c0-1.1,0.3-1.1,0.3-2.3
		s-3.2-1.1-3.2-2.3s3.2-1.1,3.2-2.3c0-1.1-3.3-1.1-3.3-2.3s-0.7-1.1-0.7-2.3s2.7-1.1,2.7-2.3s3.4-1.1,3.4-2.3c0-1.1-4.8-1.1-4.8-2.3
		s0.5-1.1,0.5-2.3s1-1.1,1-2.3c0-1.1-2.7-1.1-2.7-2.3s4.3-1.1,4.3-2.3s-1.7-1.1-1.7-2.3c0-1.1,3.1-1.1,3.1-2.3s-3.2-1.1-3.2-2.3
		s3-1.1,3-2.3s-3.3-1.1-3.3-2.3c0-1.1-0.5-1.1-0.5-2.3s1.9-1.1,1.9-2.3s1.3-1.1,1.3-2.3c0-1.1-2.2-1.1-2.2-2.3s-0.7-1.1-0.7-2.3
		s-1-1.1-1-2.3c0-1.1,3-1.1,3-2.3s-2.1-1.1-2.1-2.3s-1.2-1.1-1.2-2.3s0.3-1.1,0.3-2.3c0-1.1,3-1.1,3-2.3S3,141.1,3,140
		s2.2-1.1,2.2-2.3c0-1.1-3.2-1.1-3.2-2.3s0.7-1.1,0.7-2.3s4.7-1.1,4.7-2.3c0-1.1-2.5-1.1-2.5-2.3s-1.3-1.1-1.3-2.3s-0.2-1.1-0.2-2.3
		c0-1.1,2.9-1.1,2.9-2.3c0-1.1-0.8-1.1-0.8-2.3s-2.2-1.1-2.2-2.3c0-1.1-0.3-1.1-0.3-2.3s3-1.1,3-2.3c0-1.1-3-1.1-3-2.3
		c0-1.1-1.4-1.1-1.4-2.3s0.8-1.1,0.8-2.3c0-1.1,4.8-1.1,4.8-2.3s-1.8-1.1-1.8-2.3c0-1.1-0.9-1.1-0.9-2.3c0-1.1,2.1-1.1,2.1-2.3
		S5.5,96,5.5,94.9c0-1.1-3.4-1.1-3.4-2.3s3.9-1.1,3.9-2.3c0-1.1-2.9-1.1-2.9-2.3C3.1,87,3,87,3,85.9s-1-1.1-1-2.3
		c0-1.1,1.6-1.1,1.6-2.3s-0.6-1.1-0.6-2.3c0-1.1-0.7-1.1-0.7-2.3c0-1.1,4.5-1.1,4.5-2.3s0.1-1.1,0.1-2.3c0-1.1-0.5-1.1-0.5-2.3
		s0.2-1.1,0.2-2.3c0-1.1-0.7-1.1-0.7-2.3c0-1.1-2.8-1.1-2.8-2.3s4.6-1.1,4.6-2.3s-2.4-1.1-2.4-2.3c0-1.1,0.7-1.1,0.7-2.3
		c0-1.1-1.3-1.1-1.3-2.3C4.6,53.1,7,53.1,7,52c0-1.1,0.1-1.1,0.1-2.3s-2.6-1.1-2.6-2.3c0-1.1,2.8-1.1,2.8-2.3c0-1.1-0.9-1.1-0.9-2.3
		c0-1.1-2.4-1.1-2.4-2.3c0-1.1-1.5-1.1-1.5-2.3s4-1.1,4-2.3c0-1.1,1.2-1.1,1.2-2.3c0-1.1-3.3-1.1-3.3-2.3s-1.6-1.1-1.6-2.3
		c0-1.1,2.3-1.1,2.3-2.3s2.7-1.1,2.7-2.3c0-1.1-1.5-1.1-1.5-2.3S2,21.5,2,20.4s1.1-1.1,1.1-2.3c0-1.1,1.3-1.1,1.3-2.3
		s0.9-1.1,0.9-2.3s-1.9-1.1-1.9-2.3s0.3-1.1,0.3-2.3S5,8,5,6.9s0.1-0.5,0.9-1.3s0.1-3,1.3-3s1.1,4.2,2.3,4.2s1.1-2.2,2.3-2.2
		s1.1,1.2,2.3,1.2s1.1,1.3,2.3,1.3s1.1-4.6,2.3-4.6c1.1,0,1.1,4.6,2.3,4.6s1.1-0.8,2.3-0.8c1.1,0,1.1-3.5,2.3-3.5s1.1,0.4,2.3,0.4
		s1.1,2.9,2.3,2.9c1.1,0,1.1,0.3,2.3,0.3s1.1,0,2.3,0c1.1,0,1.1-4,2.3-4s1.1,4.8,2.3,4.8c1.1,0,1.1-3.2,2.3-3.2
		c1.1,0,1.1,3.1,2.3,3.1c1.1,0,1.1-1.6,2.3-1.6c1.1,0,1.1,0.4,2.3,0.4s1.1-2.2,2.3-2.2c1.1,0,1.1-2,2.3-2c1.1,0,1.1,0.2,2.3,0.2
		c1.1,0,1.1,3.2,2.3,3.2c1.1,0,1.1,0.9,2.3,0.9s1.1,1,2.3,1c1.1,0,1.1-2.6,2.3-2.6c1.1,0,1.1-1.3,2.3-1.3c1.1,0,1.1,1.1,2.3,1.1
		c1.1,0,1.1,1.1,2.3,1.1s1.1-1.6,2.3-1.6c1.1,0,1.1,0.6,2.3,0.6c1.1,0,1.1,1.1,2.3,1.1s1.1-0.1,2.3-0.1c1.1,0,1.1-2.1,2.3-2.1
		s1.1,4,2.3,4c1.1,0,1.1-4.1,2.3-4.1c1.1,0,1.1,4.2,2.3,4.2s1.1-2.1,2.3-2.1c1.1,0,1.1-1.8,2.3-1.8s1.1-1,2.3-1
		c1.1,0,1.1,4.4,2.3,4.4c1.1,0,1.1-4.4,2.3-4.4s1.1,3.9,2.3,3.9c1.1,0,1.1,1,2.3,1s1.1-5.5,2.3-5.5c1.1,0,1.1,0.1,2.3,0.1
		c1.1,0,1.1,1.1,2.3,1.1s1.1,1.5,2.3,1.5c1.1,0,1.1-0.4,2.3-0.4s1.1-1.1,2.3-1.1c1.1,0,1.1,3.6,2.3,3.6c1.1,0,1.1-5.2,2.3-5.2
		s1.1,1.1,2.3,1.1c1.1,0,1.1-0.2,2.3-0.2S127.9,2,129,2s1.1,5.2,2.3,5.2c1.1,0,1.1-3.4,2.3-3.4s1.1,3.9,2.3,3.9s1.1-3,2.3-3
		c1.1,0,1.1,1.8,2.3,1.8s1.1-2.5,2.3-2.5s1.1,0.2,2.3,0.2c1.1,0,1.1-1.3,2.3-1.3s1.1,3.1,2.3,3.1s1.1-1.2,2.3-1.2s1.1-1.3,2.3-1.3
		c1.1,0,1.1,3.2,2.3,3.2s1.1-0.2,2.3-0.2s1.1-4.6,2.3-4.6c1.1,0,1.1-0.4,2.3-0.4S164,7,165.1,7s1.1,0,2.3,0c1.1,0,1.1-2.8,2.3-2.8
		s1.1,2.2,2.3,2.2s1.1-0.9,2.3-0.9s1.1,0.5,2.3,0.5c1.1,0,1.1-2.4,2.3-2.4s1.1,0.7,2.3,0.7s1.1,1,2.3,1c1.1,0,1.1,0.5,2.3,0.5
		s1.1-0.3,2.3-0.3S188.8,4,190,4c1.1,0,1.1,0.7,2.3,0.7s1.1,0.4,2.3,0.4s1.1-2.8,2.3-2.8c1.1,0,1.1,2.6,2.3,2.6s1.1-1.6,2.3-1.6
		s1.1-0.9,2.3-0.9s1.1,1.3,2.3,1.3c1.1,0,1.1,1,2.3,1s1.1,1.3,2.3,1.3s1.1-1.6,2.3-1.6c1.1,0,1.1-0.2,2.3-0.2s1.1-2.3,2.3-2.3
		s1.1,1.6,2.3,1.6c1.1,0,1.1-0.2,2.3-0.2s1.1,0.8,2.3,0.8s1.1,0,2.3,0s1.1,3,2.3,3c1.1,0,1.1-2.2,2.3-2.2s1.1-2.2,2.3-2.2
		S234,5,235.1,5c1.1,0,1.1-0.2,2.3-0.2s1.1-0.3,2.3-0.3s1.1,2.2,2.3,2.2c1.1,0,1.1,0.8,2.3,0.8s1.1-0.9,2.3-0.9s1.1-2,2.3-2
		s1.1-1.6,2.3-1.6c1.1,0,1.1,3,2.3,3s1.1-3.4,2.3-3.4c1.1,0,1.1,2.6,2.3,2.6s1.1,0.1,2.3,0.1S261,2,262.2,2s1.1,4.6,2.3,4.6
		s1.1-3.5,2.3-3.5s1.1-1.7,2.3-1.7c1.1,0,1.1,4.6,2.3,4.6s1.1-2.9,2.3-2.9s1.1,2.6,2.3,2.6S276.8,6,278,6s1.1,1.3,2.3,1.3
		s1.1-4.3,2.3-4.3s1.1-0.1,2.3-0.1c1.1,0,1.1-1,2.3-1s1.1,3.1,2.3,3.1s1.1-0.1,2.3-0.1s1.1-2.9,2.3-2.9s1.1,4.5,2.3,4.5
		s1.1-4.5,2.3-4.5c1.1,0,1.1,2.7,2.3,2.7s1.1,0.5,2.3,0.5s1.1,0.2,2.3,0.2s1.1-3.4,2.3-3.4s1.1,3.2,2.3,3.2s1.1-3.6,2.3-3.6
		s1.1,0.2,2.3,0.2c1.1,0,1.1,4.5,2.3,4.5s0.9-1.9,1.7-1.2c0.8,0.8,0.1,0.6,0.1,1.7s3.6,1.1,3.6,2.3s-0.5,1.1-0.5,2.3
		s-2.6,1.1-2.6,2.3s1.6,1.1,1.6,2.3s-1.5,1.1-1.5,2.3s-0.8,1.1-0.8,2.3s-0.9,1.1-0.9,2.3c0,1.1,2.5,1.1,2.5,2.3s-1.9,1.1-1.9,2.3
		c0,1.1,3.7,1.1,3.7,2.3s-3.7,1.1-3.7,2.3c0,1.1,1.6,1.1,1.6,2.3c0,1.1-1.3,1.1-1.3,2.3c0,1.1,0.7,1.1,0.7,2.3
		c0,1.1,0.4,1.1,0.4,2.3s-3.5,1.1-3.5,2.3c0,1.1,3.4,1.1,3.4,2.3c0,1.1,2.5,1.1,2.5,2.3c0,1.1-1,1.1-1,2.3c0,1.1-1.7,1.1-1.7,2.3
		s-0.1,1.1-0.1,2.3c0,1.1,1.1,1.1,1.1,2.3c0,1.1,0.9,1.1,0.9,2.3c0,1.1-0.4,1.1-0.4,2.3c0,1.1-1.9,1.1-1.9,2.3c0,1.1,2,1.1,2,2.3
		c0,1.1-3.4,1.1-3.4,2.3s4.8,1.1,4.8,2.3c0,1.1-1.1,1.1-1.1,2.3c0,1.1-2,1.1-2,2.3s1.5,1.1,1.5,2.3c0,1.1,0.1,1.1,0.1,2.3
		s-1.2,1.1-1.2,2.3c0,1.1,0.1,1.1,0.1,2.3c0,1.1,0,1.1,0,2.3s2,1.1,2,2.3c0,1.1-2.3,1.1-2.3,2.3c0,1.1,0.6,1.1,0.6,2.3
		s-3.8,1.1-3.8,2.3c0,1.1,0.5,1.1,0.5,2.3s3.7,1.1,3.7,2.3c0,1.1-0.6,1.1-0.6,2.3c0,1.1,1.5,1.1,1.5,2.3s-1.8,1.1-1.8,2.3
		c0,1.1,2.4,1.1,2.4,2.3s-3,1.1-3,2.3c0,1.1,1.5,1.1,1.5,2.3c0,1.1-0.8,1.1-0.8,2.3s2.2,1.1,2.2,2.3c0,1.1-0.8,1.1-0.8,2.3
		s-3.5,1.1-3.5,2.3c0,1.1,4,1.1,4,2.3c0,1.1-0.3,1.1-0.3,2.3s0.4,1.1,0.4,2.3c0,1.1-5.4,1.1-5.4,2.3c0,1.1,2.5,1.1,2.5,2.3
		s0.2,1.1,0.2,2.3s1.6,1.1,1.6,2.3c0,1.1,1.7,1.1,1.7,2.3s-2.4,1.1-2.4,2.3s0.2,1.1,0.2,2.3s-1.6,1.1-1.6,2.3c0,1.1-0.6,1.1-0.6,2.3
		s-0.2,1.1-0.2,2.3s-1.1,1.1-1.1,2.3c0,1.1,3.5,1.1,3.5,2.3s1.2,1.1,1.2,2.3s0,1.1,0,2.3c0,1.1-4.5,1.1-4.5,2.3s5.2,1.1,5.2,2.3
		s-0.5,1.1-0.5,2.3s0.4,1.1,0.4,2.3c0,1.1-5.6,1.1-5.6,2.3s3.1,1.1,3.1,2.3s2.7,1.1,2.7,2.3c0,1.1-3.5,1.1-3.5,2.3s1.4,1.1,1.4,2.3
		s-2.3,1.1-2.3,2.3c0,1.1-0.9,1.1-0.9,2.3s3.3,1.1,3.3,2.3s0.7,1.1,0.7,2.3s-2.2,1.1-2.2,2.3c0,1.1,2.5,1.1,2.5,2.3
		s-0.7,1.1-0.7,2.3s-3,1.1-3,2.3c0,1.1,0,1.1,0,2.3s-1.2,1.1-1.2,2.3s1.7,1.1,1.7,2.3c0,1.1-0.8,1.1-0.8,2.3s3.4,1.1,3.4,2.3
		s-2.8,1.1-2.8,2.3c0,1.1,0.4,1.1,0.4,2.3s-1.6,1.1-1.6,2.3s0.3,1.1,0.3,2.3s0,1.1,0,2.3c0,1.1,3.5,1.1,3.5,2.3s-1.1,1.1-1.1,2.3
		s1.7,1.6,1.4,2.6C319.6,229.2,317.9,228.1,317.1,228.9z"/>
</g>
<g class="st2">
	
		<image style="overflow:visible;enable-background:new    ;" width="1352" height="997" xlink:href="9939DFC8.png"  transform="matrix(0.2508 0 0 0.2508 -7.6176 -7.0091)">
	</image>
</g>
<g>
	<linearGradient id="SVGID_1_" gradientUnits="userSpaceOnUse" x1="165.9698" y1="30.9491" x2="187.7877" y2="30.9491">
		<stop  offset="0" style="stop-color:#C0C7D2"/>
		<stop  offset="1" style="stop-color:#D7DBE3"/>
	</linearGradient>
	<path class="st3" d="M187.8,36.8C187.8,36.7,187.8,36.7,187.8,36.8C187.8,36.7,187.8,36.7,187.8,36.8
		C187.8,36.7,187.8,36.7,187.8,36.8c0-0.1,0-0.1,0-0.1c0,0,0,0,0,0c0,0,0,0,0,0c0,0,0,0,0,0c0,0,0,0,0,0c0,0,0,0,0,0c0,0,0,0,0,0
		c0,0,0,0,0,0c0,0,0,0,0,0c0,0,0,0,0,0c0,0,0,0,0,0c0,0,0,0,0,0c0,0,0,0,0,0c-0.1-0.1-0.1-0.1-0.2-0.2c0,0,0,0,0,0l0,0c0,0,0,0,0,0
		c0,0,0,0,0,0c-0.1-0.1-0.1-0.1-0.1-0.1c0,0,0,0,0,0c0,0,0,0,0,0c-0.1,0-0.1-0.1-0.2-0.1l0,0c0,0,0,0,0,0c0,0,0,0,0,0l0,0
		c-0.1,0-0.1-0.1-0.2-0.1c0,0,0,0,0,0c0,0,0,0-0.1,0c0,0,0,0,0,0c0,0,0,0,0,0c0,0-0.1-0.1-0.1-0.1c0,0,0,0,0,0
		c-0.6-0.4-1.1-0.5-1.3-0.6c0,0-0.1,0-0.1,0c0,0,0,0,0,0c0,0-0.1,0-0.1,0l-0.1,0c0,0,0,0,0,0c0,0,0,0,0,0l-0.1,0c-0.1,0-0.1,0-0.2,0
		c0,0,0,0,0,0c0,0-0.1,0-0.1,0c0,0-0.1,0-0.1,0c0,0,0,0-0.1,0c0,0,0,0-0.1,0c0,0-0.1,0-0.2,0c0,0,0,0,0,0c0,0,0,0,0,0c0,0,0,0,0,0
		c-0.1,0-0.2,0-0.2,0c0,0,0,0,0,0c0,0,0,0,0,0c0,0,0,0,0,0c0,0,0,0-0.1,0c0,0-0.1,0-0.1,0c0,0,0,0-0.1,0c0,0,0,0,0,0l0,0
		c0,0,0,0,0,0c0,0-0.1,0-0.1,0c0,0,0,0,0,0c0,0,0,0,0,0c-0.1,0-0.2,0-0.2,0c0,0,0,0,0,0l0,0c0,0,0,0,0,0c0,0-0.1,0-0.1,0
		c0,0,0,0-0.1,0c0,0,0,0-0.1,0c0,0-0.1,0-0.1,0c-1-1.2-2.1-2.4-3.1-3.7c0,0,0,0,0-0.1c0,0,0,0,0,0c0,0,0-0.1,0-0.1c0,0,0,0,0,0
		c0-0.1,0.1-0.1,0.1-0.2l0,0c0,0,0,0,0,0c0,0,0,0,0,0c0,0,0,0,0,0c0,0,0,0,0-0.1c0,0,0,0,0-0.1c0,0,0,0,0,0l0,0c0,0,0,0,0,0
		c0,0,0,0,0,0c0-0.1,0.1-0.1,0.1-0.2c0-0.1,0.1-0.2,0.1-0.3c0,0,0-0.1,0-0.2c0,0,0,0,0,0c0,0,0,0,0,0c0,0,0-0.1,0-0.1c0,0,0,0,0-0.1
		c0,0,0,0,0-0.1l0,0c0,0,0,0,0,0c0,0,0,0,0,0c0-0.2,0.1-0.4,0.1-0.5c0,0,0-0.1,0-0.1c0,0,0-0.1,0-0.1c0-0.2,0-0.4,0-0.6c0,0,0,0,0,0
		c0,0,0,0,0-0.1c0,0,0,0,0-0.1c0-0.1,0-0.2,0-0.3c0-0.1,0-0.2,0-0.4c-0.1-0.6-0.2-1.2-0.4-1.6l0,0c0,0,0,0,0,0c0,0,0,0,0,0
		c0,0,0,0,0,0c-0.1-0.2-0.1-0.2-0.1-0.4c0,0,0,0,0,0c0-0.1-0.1-0.2-0.1-0.3c0,0,0,0,0,0l0-0.1c0,0,0,0,0,0c0,0,0,0,0,0
		c-0.1-0.1-0.1-0.3-0.2-0.4c0,0,0,0,0,0c0-0.1-0.1-0.1-0.1-0.2l-0.1-0.1c0,0,0,0,0,0c0,0,0,0,0,0l0-0.1c0,0,0,0,0,0
		c-0.1-0.1-0.1-0.2-0.2-0.2c0,0,0,0,0,0c0,0-0.1-0.1-0.1-0.1c0,0,0,0,0,0c0,0,0,0,0,0c0,0-0.1-0.1-0.1-0.1c0,0,0,0,0,0c0,0,0,0,0,0
		c0,0-0.1,0-0.1-0.1c0,0,0,0,0,0c0,0,0,0,0,0c0,0-0.1,0-0.2,0c0,0,0,0,0,0c0,0,0,0,0,0c0,0,0,0,0,0c0,0,0,0,0,0c0,0-0.1,0-0.2,0
		c0,0,0,0,0,0c0,0,0,0,0,0c0,0,0,0,0,0c-0.1,0-0.3,0-0.4,0c0,0,0,0,0,0c0,0,0,0,0,0c-0.1,0-0.1,0-0.2,0c0,0,0,0,0,0c0,0,0,0,0,0
		c0,0,0,0,0,0c0,0,0,0,0,0c0,0,0,0,0,0c-0.1,0-0.1,0-0.2,0.1c0,0,0,0,0,0c0,0,0,0,0,0c-0.2,0-0.3,0.1-0.5,0.2c0,0-0.1,0-0.1,0
		c0,0,0,0,0,0c0,0,0,0,0,0c-0.1,0-0.2,0.1-0.2,0.1c0,0,0,0,0,0c0,0,0,0,0,0c0,0,0,0-0.1,0c0,0,0,0,0,0c0,0,0,0,0,0
		c-0.4,0.2-0.8,0.4-1.3,0.7c0,0,0,0,0,0c0,0,0,0,0,0c0,0-0.1,0.1-0.1,0.1c-0.3,0.2-0.7,0.4-1,0.7c-2.2-2.3-4.5-4.5-6.7-6.8
		c0,0,0,0,0,0c0,0,0,0,0,0c0,0,0,0,0,0c0,0,0,0,0,0c0,0,0,0,0,0c0,0,0,0,0,0c-0.1,0-0.2,0-0.2-0.1c-0.2-0.1-0.2,0.7-0.4,0.6
		c0,0.3-0.2-0.2-0.2,0.2l0,0l0,0c0,0,0,0,0,0c0,0,0,0,0,0c0,0,0,0,0,0c0,0,0,0,0,0c0,0,0,0,0,0c0,0,0,0,0,0c1.9,2.6,3.7,5.1,5.6,7.7
		c0,0,0,0,0,0c-0.1,0.1-0.1,0.1-0.2,0.2c-0.1,0.1-0.1,0.1-0.2,0.2l0,0c-0.1,0.1-0.2,0.2-0.3,0.3c0,0,0,0,0,0c0,0-0.1,0.1-0.1,0.1
		c0,0,0,0-0.1,0.1c0,0,0,0,0,0c0,0-0.1,0.1-0.1,0.1c0,0,0,0,0,0c0,0-0.1,0.1-0.1,0.1c0,0,0,0,0,0c0,0-0.1,0.1-0.1,0.1c0,0,0,0,0,0
		c0,0,0,0-0.1,0.1c0,0,0,0,0,0c0,0-0.1,0.1-0.1,0.1c0,0,0,0,0,0c0,0,0,0.1-0.1,0.1c0,0,0,0,0,0c0,0-0.1,0.1-0.1,0.1c0,0,0,0,0,0
		c0,0,0,0,0,0c-0.1,0.1-0.1,0.2-0.2,0.3c0,0,0,0,0,0c0,0,0,0,0,0c0,0,0,0,0,0c0,0.1-0.1,0.1-0.1,0.2v0c0,0,0,0,0,0c0,0,0,0,0,0.1
		c0,0-0.1,0.1-0.1,0.1c0,0,0,0,0,0.1c0,0,0,0,0,0c0,0,0,0,0,0c0,0,0,0.1-0.1,0.1c0,0,0,0,0,0c0,0,0,0.1,0,0.1c0,0,0,0.1-0.1,0.1
		c0,0,0,0,0,0c0,0,0,0,0,0.1c0,0,0,0.1-0.1,0.1c0,0,0,0,0,0c0,0,0,0,0,0c0,0,0,0.1,0,0.1l0,0c0,0,0,0.1,0,0.1c0,0,0,0,0,0
		c0,0.1,0,0.1-0.1,0.2c0,0,0,0,0,0l0,0c0,0,0,0.1,0,0.1c0,0,0,0,0,0c0,0,0,0,0,0c0,0.1,0,0.1,0,0.2c0,0.1,0,0.1,0,0.2c0,0,0,0,0,0
		c0,0,0,0.1,0,0.1c0,0,0,0,0,0c0,0,0,0,0,0.1c0,0,0,0.1,0,0.1c0,0,0,0,0,0.1c0,0,0,0,0,0.1c0,0,0,0,0,0c0,0,0,0,0,0c0,0,0,0,0,0.1
		c0,0,0,0,0,0c0,0,0,0,0,0c0,0,0,0,0,0c0,0,0,0,0,0c0,0,0,0,0,0c0,0,0,0,0,0c0,0,0,0,0,0c0,0,0,0,0,0c0,0,0,0,0,0c0,0,0,0,0,0
		c0,0,0,0,0,0c0,0,0,0,0,0c0.1,0.1,0.1,0.1,0.2,0.2c0,0,0.1,0.1,0.1,0.1c0,0,0,0,0,0c0,0,0,0,0,0l0,0c0.1,0.1,0.2,0.2,0.3,0.2
		c0,0,0.1,0.1,0.1,0.1c0,0,0,0,0,0c0.1,0.1,0.1,0.1,0.2,0.2l0.1,0.1c0,0,0,0,0,0c0,0,0,0,0,0l0.1,0v0c0.1,0,0.1,0.1,0.2,0.1
		c0,0,0,0,0.1,0l0,0c0,0,0,0,0,0c0,0,0,0,0.1,0c0,0,0,0,0.1,0.1c0,0,0,0,0,0c0.1,0.1,0.2,0.1,0.2,0.1c0,0,0,0,0,0
		c0.1,0,0.1,0.1,0.2,0.1c0.6,0.3,1.2,0.5,1.8,0.6c0.1,0,0.2,0,0.3,0c0,0,0,0,0.1,0c0,0,0,0,0,0c0,0,0,0,0,0c0,0,0.1,0,0.3,0
		c0.5,0,1,0,1.6,0c0.1,0,0.1,0,0.2,0c0,0,0,0,0,0l0,0c0,0,0,0,0,0c0,0,0,0,0,0c0,0,0,0,0,0c0,0,0,0,0.1,0c0,0,0,0,0,0
		c0,0,0.1,0,0.1,0l0,0c0,0,0,0,0.1,0c0,0,0,0,0,0c0,0,0,0,0,0c0.1,0,0.1,0,0.2-0.1c0,0,0,0,0.1,0c0,0,0.1,0,0.1,0c0,0,0.1,0,0.1,0
		c0,0,0,0,0,0l3.1,3.7c0,0,0,0,0,0c0,0,0,0.1,0,0.1c0,0.1-0.1,0.1-0.1,0.2l0,0c0,0,0,0,0,0c0,0,0,0,0,0.1c0,0,0,0.1,0,0.1
		c0,0,0,0,0,0l0,0c0,0.1,0,0.2-0.1,0.2c0,0,0,0,0,0c0,0,0,0,0,0c0,0,0,0,0,0.1c0,0,0,0,0,0c0,0,0,0.1,0,0.1c0,0,0,0,0,0l0,0
		c0,0,0,0,0,0c0,0,0,0,0,0c0,0,0,0,0,0c0,0,0,0,0,0l0,0c0,0.2,0,0.3,0,0.3l0,0c0,0,0,0,0,0c0,0,0,0,0,0c0,0.1,0,0.2,0,0.3l0,0.1
		c0,0,0,0.1,0,0.1l0,0.1c0,0.1,0,0.2,0,0.3c0,0,0,0,0,0c0,0.1,0,0.1,0,0.2c0,0,0,0.1,0,0.1c0,0,0,0,0,0c0,0.1,0,0.2,0,0.3
		c0,0,0,0,0,0v0c0,0.1,0,0.1,0,0.2l0,0.1c0,0,0,0,0,0c0,0,0,0,0,0c0,0,0,0,0,0c0,0,0,0.1,0,0.1l0,0c0,0,0,0,0,0c0,0,0,0,0,0l0,0
		c0,0,0,0.1,0,0.1c0,0,0,0,0,0.1c0,0,0,0,0,0l0,0c0,0,0,0,0,0c0,0,0,0,0,0c0,0.1,0.1,0.1,0.1,0.2l0,0.1c0,0,0,0,0,0c0,0,0,0,0,0l0,0
		c0,0.1,0.1,0.1,0.1,0.2c0,0,0,0,0,0c0,0,0,0.1,0.1,0.1c0,0,0,0,0,0c0,0,0,0.1,0.1,0.1c0,0,0,0,0,0c0,0,0,0,0,0c0,0,0,0,0,0v0
		c0,0.1,0.1,0.2,0.2,0.2l0.1,0.2c0.1,0.1,0.1,0.2,0.2,0.2c0,0,0,0,0,0c0,0,0,0,0,0c0,0,0,0,0.1,0.1c0,0,0,0,0,0c0,0,0,0,0,0
		c0,0,0.1,0,0.1,0c0,0,0,0,0,0c0,0,0,0,0,0c0,0,0.1,0,0.1,0c0,0,0,0,0,0c0,0,0,0,0,0c0,0,0.1,0,0.1,0c0,0,0,0,0,0c0,0,0,0,0,0
		c0,0,0,0,0,0c0,0,0,0,0,0c0.1,0,0.1,0,0.2,0c0,0,0,0,0.1,0c0,0,0,0,0,0c0,0,0,0,0,0c0.1,0,0.2,0,0.3-0.1c0,0,0,0,0,0c0,0,0,0,0,0
		c0,0,0,0,0,0c0,0,0,0,0,0c0.1,0,0.3-0.1,0.4-0.1c0,0,0,0,0,0c0,0,0,0,0,0c0.1,0,0.1-0.1,0.2-0.1c0,0,0,0,0,0c0,0,0,0,0,0
		c0,0,0.1,0,0.1-0.1c0,0,0.1,0,0.1,0c0,0,0,0,0,0c0,0,0,0,0,0c0,0,0,0,0,0c0,0,0,0,0,0c0,0,0,0,0,0c0,0,0.1,0,0.1-0.1
		c0,0,0.1,0,0.1,0c0,0,0.1,0,0.1-0.1c0,0,0,0,0.1,0c0,0,0.1-0.1,0.1-0.1c0,0,0,0,0,0c0,0,0.1,0,0.1-0.1c0,0,0,0,0,0
		c0,0,0.1-0.1,0.1-0.1c0,0,0.1,0,0.1-0.1l0,0c0,0,0.1,0,0.1-0.1c0.5-0.4,1.1-0.8,1.6-1.2c0.1-0.1,0.2-0.2,0.3-0.3
		c0,0,0.1-0.1,0.1-0.1c0.1-0.1,0.1-0.1,0.2-0.2c0,0,0.1-0.1,0.1-0.1c0.1,0,0.1-0.1,0.1-0.1c0.1-0.1,0.1-0.1,0.2-0.2c0,0,0,0,0,0
		c0,0,0.1-0.1,0.1-0.1c0.1-0.1,0.1-0.1,0.2-0.2c0.1-0.1,0.2-0.3,0.3-0.4c0,0,0,0,0,0c0.1-0.1,0.1-0.1,0.2-0.2c0,0,0,0,0,0
		c0,0,0,0,0,0v0c0.1-0.1,0.1-0.2,0.2-0.3c0,0,0-0.1,0.1-0.1c0,0,0.1-0.1,0.1-0.1c0,0,0.1-0.1,0.1-0.1c0,0,0,0,0,0c0,0,0,0,0,0
		c0,0,0,0,0,0c0,0,0,0,0,0c0,0,0-0.1,0.1-0.1l0,0c0,0,0,0,0-0.1c0,0,0,0,0,0c0,0,0-0.1,0.1-0.1v0c0,0,0,0,0,0c0,0,0-0.1,0.1-0.1l0,0
		c0,0,0,0,0,0c0,0,0,0,0,0c0,0,0-0.1,0-0.1c0,0,0,0,0,0c0,0,0,0,0,0c0-0.1,0.1-0.2,0.1-0.3c0,0,0,0,0,0c0,0,0,0,0,0c0,0,0-0.1,0-0.1
		c0,0,0-0.1,0-0.1c0,0,0,0,0,0c0,0,0-0.1,0-0.1c0,0,0,0,0,0c0,0,0,0,0,0C187.8,36.8,187.8,36.8,187.8,36.8
		C187.8,36.8,187.8,36.8,187.8,36.8z"/>
	<g>
		<g>
			<g>
				<g>
					<path class="st4" d="M176.9,18.4"/>
				</g>
			</g>
			<g>
				<defs>
					<path id="SVGID_2_" d="M165.9,18.8c1.4-2.1,2.9-4.1,4.3-6.2c-0.3,0.4-0.3,1,0,1.6c0.4,0.8,1.4,1.2,2.1,0.9
						c0.1,0,0.2-0.1,0.3-0.2c-1,0.8-1.9,1.6-2.9,2.4c-1,0.8-1.9,1.6-2.9,2.4c0,0-0.1,0.1-0.1,0.1c-0.3,0.1-0.7,0-0.8-0.3
						C165.8,19.2,165.8,19,165.9,18.8z"/>
				</defs>
				<linearGradient id="SVGID_3_" gradientUnits="userSpaceOnUse" x1="165.8596" y1="16.2448" x2="172.7013" y2="16.2448">
					<stop  offset="0" style="stop-color:#FFFFFF"/>
					<stop  offset="0.2952" style="stop-color:#0B0B0B"/>
					<stop  offset="0.4238" style="stop-color:#7F7F7F"/>
					<stop  offset="0.6524" style="stop-color:#EAEAEA"/>
				</linearGradient>
				<use xlink:href="#SVGID_2_"  style="overflow:visible;fill:url(#SVGID_3_);"/>
				<clipPath id="SVGID_4_">
					<use xlink:href="#SVGID_2_"  style="overflow:visible;"/>
				</clipPath>
				<g class="st5">
					<linearGradient id="SVGID_5_" gradientUnits="userSpaceOnUse" x1="169.7842" y1="17.5227" x2="168.1443" y2="16.117">
						<stop  offset="0" style="stop-color:#FFFFFF"/>
						<stop  offset="0.2952" style="stop-color:#0B0B0B"/>
						<stop  offset="0.4238" style="stop-color:#7F7F7F"/>
						<stop  offset="0.6524" style="stop-color:#EAEAEA"/>
					</linearGradient>
					<path class="st6" d="M165.9,18.8l4.3-6.2c-0.3,0.4-0.3,1,0,1.6c0.4,0.8,1.4,1.2,2.1,0.9c0.1,0,0.2-0.1,0.3-0.2l-5.8,4.8
						c0,0-0.1,0.1-0.1,0.1c-0.3,0.1-0.7,0-0.8-0.3C165.8,19.2,165.8,19,165.9,18.8"/>
				</g>
			</g>
			<radialGradient id="SVGID_6_" cx="169.8803" cy="10.5653" r="9.3747" gradientUnits="userSpaceOnUse">
				<stop  offset="0" style="stop-color:#C7C7C7"/>
				<stop  offset="0.1762" style="stop-color:#666666"/>
				<stop  offset="0.2671" style="stop-color:#575757"/>
				<stop  offset="0.4072" style="stop-color:#454545"/>
				<stop  offset="0.5095" style="stop-color:#3F3F3F"/>
				<stop  offset="1" style="stop-color:#000000"/>
			</radialGradient>
			<path class="st7" d="M178.6,12.3c-0.1-0.3-0.2-1.1-0.8-2.1c-0.2-0.4-0.9-1.5-2.3-2.4c-1.4-0.9-2.7-1.1-3.2-1.1
				c-0.1,0-0.8-0.1-1.7,0L170,6.7c-0.3,0.1-0.7,0.2-1,0.3c0,0-0.7,0.2-1.4,0.7c-0.1,0.1-0.3,0.2-0.4,0.3c-0.1,0.1-0.2,0.2-0.3,0.3
				c-0.1,0.1-0.3,0.2-0.4,0.4c0,0,0,0,0,0c0,0,0,0,0,0c-1.7,1.8-2,4.7-0.5,7.4c1.9,3.4,6,5,9.1,3.7c0.8-0.3,1.4-0.8,1.9-1.4
				c0,0,0,0,0,0c0,0,0,0,0,0c0.1-0.1,0.2-0.2,0.2-0.3c0.1-0.2,0.3-0.4,0.4-0.5c0.3-0.5,0.4-0.7,0.6-1.2c0,0,0.4-0.9,0.5-1.9
				C178.7,14.1,178.8,13.3,178.6,12.3z"/>
			<g>
				<defs>
					<path id="SVGID_7_" d="M172.2,9.3l2.3-2.5c-0.6,0.6-0.7,1.6-0.1,2.5c0.7,1.2,2.1,1.8,3.2,1.3c0.2-0.1,0.5-0.3,0.6-0.4l-2.3,2.5
						c-0.2,0.2-0.4,0.3-0.6,0.4c-1.1,0.5-2.5-0.1-3.2-1.3C171.5,11,171.6,10,172.2,9.3z"/>
				</defs>
				<clipPath id="SVGID_8_">
					<use xlink:href="#SVGID_7_"  style="overflow:visible;"/>
				</clipPath>
				<g class="st8">
					<linearGradient id="SVGID_9_" gradientUnits="userSpaceOnUse" x1="173.0373" y1="8.2486" x2="176.1456" y2="12.4962">
						<stop  offset="0" style="stop-color:#C7C7C7"/>
						<stop  offset="0.1762" style="stop-color:#666666"/>
						<stop  offset="0.2671" style="stop-color:#575757"/>
						<stop  offset="0.4072" style="stop-color:#454545"/>
						<stop  offset="0.5095" style="stop-color:#3F3F3F"/>
						<stop  offset="1" style="stop-color:#000000"/>
					</linearGradient>
					<path class="st9" d="M172.2,9.3l2.3-2.5c-0.6,0.6-0.7,1.6-0.1,2.5c0.7,1.2,2.1,1.8,3.2,1.3c0.2-0.1,0.5-0.3,0.6-0.4l-2.3,2.5
						c-0.2,0.2-0.4,0.3-0.6,0.4c-1.1,0.5-2.5-0.1-3.2-1.3C171.5,11,171.6,10,172.2,9.3"/>
				</g>
			</g>
			<g>
				<defs>
					<path id="SVGID_10_" d="M174,2.9c0.4-0.4,0.9-0.8,1.5-1.1c2.4-1,5.6,0.3,7.1,2.9c-0.8,0.9-2.5,2-4.2,3
						c-0.7-1.2-2.1-1.8-3.2-1.3c-1.1,0.5-1.4,1.8-0.8,3c0.7,1.2,2.1,1.8,3.2,1.3c1.1-0.5,1.4-1.8,0.8-3c1.8-1,3.4-2.1,4.2-3
						c1.2,2.1,0.9,4.3-0.4,5.7c-1.2,1.2-2.5,1.5-2.9,1.6c-0.4,0.1-1.7,0.3-3.2-0.3c-1.3-0.6-2.1-1.4-2.5-2.1
						c-0.9-1.4-0.9-2.7-0.9-3.2c0-0.9,0.3-1.7,0.3-1.8C173.2,3.9,173.5,3.5,174,2.9z"/>
				</defs>
				<clipPath id="SVGID_11_">
					<use xlink:href="#SVGID_10_"  style="overflow:visible;"/>
				</clipPath>
				<g class="st10">
					<linearGradient id="SVGID_12_" gradientUnits="userSpaceOnUse" x1="172.5887" y1="6.8065" x2="183.2604" y2="6.8065">
						<stop  offset="0" style="stop-color:#4A4A4A"/>
						<stop  offset="1" style="stop-color:#000000"/>
					</linearGradient>
					<path class="st11" d="M174,2.9c-2.2,2.7-1.2,5.3-0.7,6.3c1,1.9,3.3,3.1,5.5,2.8c1.8-0.2,2.9-1.2,3.3-1.6
						c1.3-1.4,1.6-3.6,0.4-5.7c-0.8,0.9-2.5,2-4.2,3c0.7,1.2,0.3,2.5-0.8,3c-1.1,0.5-2.5-0.1-3.2-1.3c-0.7-1.2-0.3-2.5,0.8-3
						c1.1-0.5,2.5,0.1,3.2,1.3c1.8-1,3.4-2.1,4.2-3c-1.5-2.6-4.7-3.9-7.1-2.9C174.8,2.1,174.3,2.5,174,2.9"/>
				</g>
			</g>
			<g>
				<defs>
					<path id="SVGID_13_" d="M173.3,9.3c-0.1-0.2-0.4-0.8-0.6-1.5c-0.2-0.8-0.1-1.4-0.1-1.7c0.1-0.8,0.3-1.3,0.5-1.8
						c0.1-0.3,0.3-0.5,0.5-0.9c0.1-0.2,0.3-0.4,0.4-0.5c-1.2,1.4-1.4,3.6-0.3,5.5c1.5,2.6,4.7,3.9,7.1,2.9c0.5-0.2,1-0.5,1.3-0.9
						c-0.2,0.2-0.4,0.4-0.6,0.5c-0.1,0.1-0.2,0.2-0.3,0.2c-0.6,0.4-0.9,0.5-1.3,0.6c-0.2,0.1-0.4,0.1-0.6,0.2
						c-0.2,0-0.5,0.1-0.8,0.1c-0.3,0-0.8,0-1,0c-0.2,0-0.5-0.1-0.7-0.1c-0.1,0-0.3-0.1-0.4-0.1c-0.5-0.2-0.5-0.2-0.7-0.3
						c-0.3-0.2-0.5-0.3-0.6-0.4C174,10.5,173.5,9.6,173.3,9.3z"/>
				</defs>
				<clipPath id="SVGID_14_">
					<use xlink:href="#SVGID_13_"  style="overflow:visible;"/>
				</clipPath>
				<g class="st12">
					<path d="M173.3,9.3c-1.2-2.1-0.9-4.5,0.6-6.4c-1.2,1.4-1.4,3.6-0.3,5.5c1.5,2.6,4.7,3.9,7.1,2.9c0.5-0.2,1-0.5,1.3-0.9
						C178.8,13.6,174.7,11.9,173.3,9.3"/>
				</g>
			</g>
			<g>
				<linearGradient id="SVGID_15_" gradientUnits="userSpaceOnUse" x1="174.2546" y1="0.3116" x2="182.3983" y2="13.5894">
					<stop  offset="0" style="stop-color:#4A4A4A"/>
					<stop  offset="1" style="stop-color:#000000"/>
				</linearGradient>
				<path class="st13" d="M182.5,4.7c1.5,2.6,0.7,5.6-1.7,6.6c-2.4,1-5.6-0.3-7.1-2.9c-1.5-2.6-0.7-5.6,1.7-6.6
					C177.9,0.8,181,2.1,182.5,4.7z"/>
			</g>
		</g>
	</g>
</g>
</svg>
