<svg xmlns="http://www.w3.org/2000/svg" width="45" height="45" viewBox="0 0 45 45"><defs><style>.a{fill:#231815;}.b{fill:#5da831;}.c{fill:#fff;}</style></defs><title>uber_app</title><rect class="a" width="45" height="45" rx="8.9" ry="8.9"/><path class="b" d="M5.6,23.8h8v2H7.7v2.8h5.7v1.8H7.7v2.9h5.9v1.9h-8Zm30,11.6c2.5,0,3.8-1.1,3.8-2.8s-.8-2-2.5-2.3l-1.8-.4c-1-.2-1.4-.4-1.4-.8s.5-.8,1.5-.8,1.7.3,1.9,1.2h2.1c-.1-1.7-1.3-2.9-3.9-2.9s-3.8.9-3.8,2.7.9,2,2.7,2.4l2,.5c.8.1,1.1.3,1.1.7s-.6.8-1.6.8-1.9-.3-2.2-1.2H31.3C31.7,34.3,33,35.4,35.6,35.4Zm-4.9-.2H28.4a2,2,0,0,1-2.2-2V28.7H24.6V26.8h1.6V24.4h2.1v2.4h2.4v1.9H28.3v3.9a.7.7,0,0,0,.8.7h1.6Zm-9.2-8.4v.8a3.5,3.5,0,0,0-2.6-1A4.5,4.5,0,0,0,14.4,31a4.4,4.4,0,0,0,4.5,4.4,3.5,3.5,0,0,0,2.6-1v.8h2.2V26.8ZM19,33.6A2.6,2.6,0,1,1,21.6,31,2.6,2.6,0,0,1,19,33.6Z"/><path class="c" d="M38.8,14.1a2,2,0,0,0-1.9,2.1v4.7H35.3V12.7h1.6v1a2.1,2.1,0,0,1,1.9-1.1h.6v1.5Zm-4.6,2.7A4.1,4.1,0,0,0,30,12.5a4.3,4.3,0,0,0,.2,8.6,4.5,4.5,0,0,0,3.6-1.7l-1.2-.9a3,3,0,0,1-2.4,1.2,2.9,2.9,0,0,1-2.8-2.4h6.8ZM27.5,16a2.5,2.5,0,0,1,5,0Zm-6.9-3.5a4.3,4.3,0,0,0-2.9,1.2V9.6H16.1V20.9h1.6v-1a3.8,3.8,0,0,0,2.9,1.2,4.3,4.3,0,1,0,0-8.6Zm-.1,7.2a2.8,2.8,0,0,1-2.8-2.9,2.9,2.9,0,1,1,2.8,2.9Zm-10.4-.1a2.8,2.8,0,0,0,2.8-3v-7h1.6V20.9H12.9v-1a4.2,4.2,0,0,1-3,1.2,4.1,4.1,0,0,1-4.3-4.4V9.6H7.3v7A2.8,2.8,0,0,0,10.1,19.6Z"/></svg>